<svg xmlns="http://www.w3.org/2000/svg" width="36.549" height="35.33" viewBox="0 0 36.549 35.33">
  <g id="apps__icon" transform="translate(0 -8.533)">
    <g id="Group_15602" data-name="Group 15602" transform="translate(0 8.533)">
      <g id="Group_15601" data-name="Group 15601" transform="translate(0 0)">
        <path id="Path_62128" data-name="Path 62128" d="M34.111,8.533H2.437A2.44,2.44,0,0,0,0,10.97v20.1a.609.609,0,0,0,.609.609H35.94a.609.609,0,0,0,.609-.609V10.97A2.44,2.44,0,0,0,34.111,8.533ZM35.33,30.462H1.218V10.97A1.22,1.22,0,0,1,2.437,9.751H34.111A1.22,1.22,0,0,1,35.33,10.97Z" transform="translate(0 -8.533)" fill="#fff"/>
      </g>
    </g>
    <g id="Group_15604" data-name="Group 15604" transform="translate(0 30.462)">
      <g id="Group_15603" data-name="Group 15603">
        <path id="Path_62129" data-name="Path 62129" d="M35.94,315.733H.609a.609.609,0,0,0-.609.609v3.045a2.44,2.44,0,0,0,2.437,2.437H34.111a2.44,2.44,0,0,0,2.437-2.437v-3.045A.609.609,0,0,0,35.94,315.733Zm-.609,3.654a1.22,1.22,0,0,1-1.219,1.219H2.437a1.22,1.22,0,0,1-1.219-1.219v-2.436H35.33v2.436Z" transform="translate(0 -315.733)" fill="#fff"/>
      </g>
    </g>
    <g id="Group_15606" data-name="Group 15606" transform="translate(15.838 32.899)">
      <g id="Group_15605" data-name="Group 15605" transform="translate(0 0)">
        <path id="Path_62130" data-name="Path 62130" d="M226.131,349.867h-3.655a.609.609,0,0,0,0,1.218h3.655a.609.609,0,1,0,0-1.218Z" transform="translate(-221.867 -349.867)" fill="#fff"/>
      </g>
    </g>
    <g id="Group_15610" data-name="Group 15610" transform="translate(8.528 40.209)">
      <g id="Group_15609" data-name="Group 15609" transform="translate(0 0)">
        <path id="Path_62132" data-name="Path 62132" d="M137.132,452.267H121.294a1.827,1.827,0,0,0,0,3.655h15.838a1.827,1.827,0,1,0,0-3.655Zm0,2.437H121.294a.609.609,0,1,1,0-1.218h15.838a.609.609,0,1,1,0,1.218Z" transform="translate(-119.467 -452.267)" fill="#fff"/>
      </g>
    </g>
    <g id="Group_15612" data-name="Group 15612" transform="translate(10.965 35.335)">
      <g id="Group_15611" data-name="Group 15611" transform="translate(0 0)">
        <path id="Path_62133" data-name="Path 62133" d="M167.611,388.874c-2.021,0-3.046-1.435-3.046-4.264a.609.609,0,0,0-.609-.609h-6.091a.609.609,0,0,0-.609.609c0,2.829-1.025,4.264-3.046,4.264a.609.609,0,1,0,0,1.218h13.4a.609.609,0,1,0,0-1.218Zm-10.434,0a5.836,5.836,0,0,0,1.28-3.655h4.907a5.829,5.829,0,0,0,1.28,3.655Z" transform="translate(-153.601 -384.001)" fill="#fff"/>
      </g>
    </g>
    <g id="Group_15614" data-name="Group 15614" transform="translate(21.324 21.325)">
      <g id="Group_15613" data-name="Group 15613" transform="translate(0 0)">
        <path id="Path_62134" data-name="Path 62134" d="M306.507,192.887l-1.47-1.47.818-.818a.609.609,0,0,0-.255-1.014l-6.091-1.827a.609.609,0,0,0-.758.758l1.827,6.091a.609.609,0,0,0,1.014.256l.861-.862,1.47,1.471a.609.609,0,0,0,.861,0l1.723-1.723A.608.608,0,0,0,306.507,192.887Zm-2.153,1.293-1.339-1.34a.8.8,0,0,0-1.124,0l-.44.44-1.209-4.031,4.031,1.209-.471.471a.69.69,0,0,0,0,.975l1.413,1.413Z" transform="translate(-298.723 -187.731)" fill="#fff"/>
      </g>
    </g>
    <g id="Group_15616" data-name="Group 15616" transform="translate(7.919 13.406)">
      <g id="Group_15615" data-name="Group 15615" transform="translate(0 0)">
        <path id="Path_62135" data-name="Path 62135" d="M128.6,76.8H111.543a.609.609,0,0,0-.609.609v3.046a.609.609,0,0,0,.609.609H128.6a.609.609,0,0,0,.609-.609V77.409A.609.609,0,0,0,128.6,76.8Zm-.609,3.046H112.152V78.018H127.99Z" transform="translate(-110.934 -76.8)" fill="#fff"/>
      </g>
    </g>
    <g id="Group_15618" data-name="Group 15618" transform="translate(10.355 20.107)">
      <g id="Group_15617" data-name="Group 15617" transform="translate(0 0)">
        <path id="Path_62136" data-name="Path 62136" d="M150.549,170.667h-4.873a.609.609,0,0,0-.609.609v2.437a.609.609,0,0,0,.609.609h4.873a.609.609,0,0,0,.609-.609v-2.437A.609.609,0,0,0,150.549,170.667Zm-.609,2.437h-3.655v-1.218h3.655Z" transform="translate(-145.067 -170.667)" fill="#fff"/>
      </g>
    </g>
    <g id="Group_15620" data-name="Group 15620" transform="translate(7.919 13.406)">
      <g id="Group_15619" data-name="Group 15619" transform="translate(0 0)">
        <path id="Path_62137" data-name="Path 62137" d="M128.6,76.8H111.543a.609.609,0,0,0-.609.609V88.983a.609.609,0,0,0,.609.609h14.5a.61.61,0,0,0,.584-.785l-.771-2.571,2.568.771a.609.609,0,0,0,.784-.584V77.409A.609.609,0,0,0,128.6,76.8Zm-.609,8.8-2.867-.86a.609.609,0,0,0-.758.759l.861,2.87H112.152V78.018H127.99Z" transform="translate(-110.934 -76.8)" fill="#fff"/>
      </g>
    </g>
  </g>
</svg>
