<svg xmlns="http://www.w3.org/2000/svg" width="23.976" height="23.958" viewBox="0 0 23.976 23.958">
  <g id="call" transform="translate(-0.764 -0.726)">
    <g id="Group_15595" data-name="Group 15595" transform="translate(1 1.018)">
      <g id="Group_15594" data-name="Group 15594" transform="translate(0 0)">
        <path id="Path_62105" data-name="Path 62105" d="M23.833,19.106l-4.746-3.165a1.385,1.385,0,0,0-1.855.3L15.85,18.02a.591.591,0,0,1-.758.159l-.263-.145a15.892,15.892,0,0,1-4.142-3.253,15.957,15.957,0,0,1-3.253-4.142l-.144-.263a.592.592,0,0,1,.156-.76L9.222,8.234a1.386,1.386,0,0,0,.3-1.855L6.359,1.633A1.378,1.378,0,0,0,4.5,1.215L2.517,2.407A2.8,2.8,0,0,0,1.24,4.064c-.715,2.6-.177,7.1,6.443,13.719,5.266,5.266,9.186,6.682,11.881,6.682a6.923,6.923,0,0,0,1.836-.24,2.8,2.8,0,0,0,1.657-1.277l1.193-1.983A1.378,1.378,0,0,0,23.833,19.106Zm-.256,1.457-1.191,1.985a2.019,2.019,0,0,1-1.192.924c-2.4.66-6.6.113-12.959-6.242S1.334,6.675,1.994,4.271a2.023,2.023,0,0,1,.925-1.193L4.9,1.887a.6.6,0,0,1,.806.181L7.429,4.649,8.872,6.814a.6.6,0,0,1-.13.8L6.965,9A1.368,1.368,0,0,0,6.6,10.756l.141.256a16.576,16.576,0,0,0,3.387,4.322,16.594,16.594,0,0,0,4.321,3.387l.257.141a1.368,1.368,0,0,0,1.755-.362l1.382-1.777a.6.6,0,0,1,.8-.131L23.4,19.757A.6.6,0,0,1,23.577,20.563Z" transform="translate(-1 -1.018)" fill="#005b85" stroke="#005b85" stroke-width="0.44"/>
        <path id="Path_62106" data-name="Path 62106" d="M283.019,70.105a6.65,6.65,0,0,1,6.643,6.643.391.391,0,0,0,.781,0,7.432,7.432,0,0,0-7.424-7.424.391.391,0,0,0,0,.781Z" transform="translate(-269.732 -66.196)" fill="#005b85" stroke="#005b85" stroke-width="0.44"/>
        <path id="Path_62107" data-name="Path 62107" d="M283.019,121.305a4.3,4.3,0,0,1,4.3,4.3.391.391,0,0,0,.781,0,5.085,5.085,0,0,0-5.08-5.08.391.391,0,0,0,0,.781Z" transform="translate(-269.732 -115.052)" fill="#005b85" stroke="#005b85" stroke-width="0.44"/>
        <path id="Path_62108" data-name="Path 62108" d="M283.019,172.505a1.956,1.956,0,0,1,1.954,1.954.391.391,0,0,0,.781,0,2.738,2.738,0,0,0-2.735-2.735.391.391,0,1,0,0,.781Z" transform="translate(-269.732 -163.907)" fill="#005b85" stroke="#005b85" stroke-width="0.44"/>
      </g>
    </g>
  </g>
</svg>
