<svg xmlns="http://www.w3.org/2000/svg" width="890.213" height="389.154" viewBox="0 0 890.213 389.154">
  <g id="footer__Bg" transform="translate(-18.883)" opacity="0.1">
    <g id="Group_15464" data-name="Group 15464" transform="translate(18.883)">
      <path id="Path_61748" data-name="Path 61748" d="M746.46,2301.591l-.073.01a30.1,30.1,0,0,0-52.118-21.307l-.052-.05-84.945,102.075,30.479,105.813,95.863-54.186Z" transform="translate(-100.671 -2270.704)" fill="#fff"/>
      <path id="Path_61749" data-name="Path 61749" d="M832.508,2346.012l-.052-.053a30.1,30.1,0,0,0-21.795-51.908v-.083L678.419,2306.09l-53.271,96.37,106.105,29.464Z" transform="translate(48.377 -2052.304)" fill="#fff"/>
      <path id="Path_61754" data-name="Path 61754" d="M591.2,2294.422v.073a30.1,30.1,0,0,0-21.3,52.119l-.052.05,102.075,84.944,105.814-30.478-54.195-95.861Z" transform="translate(-560.313 -2048.044)" fill="#fff"/>
      <path id="Path_61755" data-name="Path 61755" d="M635.621,2280.223l-.051.05a30.107,30.107,0,0,0-51.92,21.8h-.073L595.7,2434.313l96.372,53.269,29.46-106.1Z" transform="translate(-341.911 -2268.941)" fill="#fff"/>
    </g>
    <path id="Path_61756" data-name="Path 61756" d="M832.922,2288.519a7.548,7.548,0,0,0-9.526-.854L639.555,2395.539l-30.915,54.081c3.335,1.569,6.711,3.045,9.88,4.882l41.386-28.078a11.328,11.328,0,0,1,15.042.884l19.208,19.206a11.353,11.353,0,0,1,.884,15.052l-28.079,41.378c1.817,3.148,3.293,6.5,4.851,9.805l54.071-30.9.052.05,107.84-183.859A7.539,7.539,0,0,0,832.922,2288.519Z" transform="translate(-87.731 -2123.655)" fill="#fff"/>
    <path id="Path_61764" data-name="Path 61764" d="M739.315,2512.8c1.569-3.327,3.054-6.7,4.883-9.868l-28.08-41.377a11.343,11.343,0,0,1,.894-15.052l19.208-19.207a11.328,11.328,0,0,1,15.042-.884l41.376,28.078c3.147-1.828,6.513-3.292,9.817-4.853l-30.895-54.07.052-.04L587.74,2287.672a7.454,7.454,0,0,0-10.367,10.38l107.861,183.839Z" transform="translate(-393.5 -2123.644)" fill="#fff"/>
    <path id="Path_61765" data-name="Path 61765" d="M624.207,2544.344l9.4-49.086a11.34,11.34,0,0,1,11.261-10.011h27.166a11.343,11.343,0,0,1,11.272,10.011l9.4,49.086c3.552.957,6.939,2.294,10.367,3.53l16.382-60.065h.073L665.77,2281.541a7.45,7.45,0,0,0-14.668,0l-53.728,206.269,16.392,60.1C617.215,2546.649,620.633,2545.311,624.207,2544.344Z" transform="translate(-193.489 -2226.607)" fill="#fff"/>
  </g>
</svg>
