<svg xmlns="http://www.w3.org/2000/svg" width="31.37" height="34.205" viewBox="0 0 31.37 34.205">
  <g id="icon-support" transform="translate(-17.506 0.25)">
    <g id="Group_15481" data-name="Group 15481" transform="translate(17.756)">
      <path id="Path_61778" data-name="Path 61778" d="M45.372,13.933h-.083V11.889a11.889,11.889,0,1,0-23.777,0v2.044h-.5a3.4,3.4,0,0,0-3.254,3.5v5.214a3.3,3.3,0,0,0,3.211,3.378H24.1a.793.793,0,0,0,.754-.829c0-.016,0-.031,0-.047V14.934c0-.5-.292-1-.751-1H23.18V11.889a10.22,10.22,0,1,1,20.44,0v2.044H42.7c-.459,0-.751.5-.751,1v10.22a.793.793,0,0,0,.7.872l.047,0h.959l-.083.125a6.591,6.591,0,0,1-5.3,2.628,4.13,4.13,0,0,0-8.176.793,4.171,4.171,0,0,0,4.171,4.13,4.3,4.3,0,0,0,3-1.293,3.671,3.671,0,0,0,1-2,8.259,8.259,0,0,0,6.633-3.3l.793-1.168a2.84,2.84,0,0,0,2.92-2.878V17.854C48.626,16.06,47.291,13.933,45.372,13.933ZM23.18,24.361H21.011A1.627,1.627,0,0,1,19.424,22.7q0-.022,0-.044V17.437A1.73,1.73,0,0,1,21.011,15.6H23.18Zm12.89,6.883a2.461,2.461,0,0,1-1.794.793,2.545,2.545,0,0,1-2.5-2.461,2.461,2.461,0,1,1,4.922,0v0A2.211,2.211,0,0,1,36.07,31.244Zm10.887-8.176c0,1.126-1.085,1.293-1.585,1.293H43.62V15.6h1.752c.918,0,1.585,1.293,1.585,2.253Z" transform="translate(-17.756)" fill="#fff" stroke="#fff" stroke-width="0.5"/>
    </g>
  </g>
</svg>
