<svg xmlns="http://www.w3.org/2000/svg" width="36.261" height="31.725" viewBox="0 0 36.261 31.725">
  <g id="icon-online-chat" transform="translate(0.5 -32.43)">
    <g id="Path_61575" data-name="Path 61575" transform="translate(0)" fill="#fff">
      <path d="M 31.26023483276367 63.90515518188477 C 31.26020812988281 63.90515518188477 31.26018142700195 63.90515518188477 31.26015472412109 63.90515518188477 C 30.90684509277344 63.90513610839844 30.65720558166504 63.73601531982422 30.45095443725586 63.57750701904297 L 30.43803596496582 63.56758499145508 L 30.42651557922363 63.55606460571289 L 26.88439559936523 60.01395416259766 L 14.78229522705078 60.01395416259766 C 13.17768573760986 60.01395416259766 11.64315509796143 59.41703414916992 10.46136569976807 58.33315658569336 C 10.30846500396729 58.19294357299805 10.21932506561279 58.0015754699707 10.21036529541016 57.79431533813477 C 10.20141506195068 57.58705520629883 10.27371501922607 57.38871383666992 10.41394519805908 57.23581695556641 C 10.56072521209717 57.07586669921875 10.76939582824707 56.98416519165039 10.98649501800537 56.98416519165039 C 11.18126583099365 56.98416519165039 11.36763572692871 57.05667495727539 11.51125526428223 57.18834686279297 C 12.40588569641113 58.00878524780273 13.56757545471191 58.46060562133789 14.7823657989502 58.46060562133789 L 26.91544532775879 58.46060562133789 C 27.31045532226562 58.46060562133789 27.68181610107422 58.61442565917969 27.96113586425781 58.89373397827148 L 30.91842460632324 61.85109710693359 L 30.91842460632324 59.0197639465332 C 30.91842460632324 58.50697708129883 31.18931579589844 58.02383422851562 31.62538528442383 57.75888442993164 C 33.08566665649414 56.87173461914062 33.95746612548828 55.32434463500977 33.95746612548828 53.61962509155273 L 33.95746612548828 47.95050430297852 C 33.95746612548828 45.28110504150391 31.78577613830566 43.1093864440918 29.11641502380371 43.1093864440918 L 14.78243541717529 43.1093864440918 C 12.11307525634766 43.1093864440918 9.94139575958252 45.28110504150391 9.94139575958252 47.95050430297852 L 9.94139575958252 53.61962509155273 C 9.94139575958252 54.27346420288086 10.06928539276123 54.90736389160156 10.32149505615234 55.50373458862305 C 10.48822498321533 55.89824676513672 10.30301570892334 56.35482406616211 9.908665657043457 56.52158355712891 C 9.812125205993652 56.56233596801758 9.710505485534668 56.58296585083008 9.606465339660645 56.58296585083008 C 9.29356575012207 56.58296585083008 9.012665748596191 56.39685440063477 8.890835762023926 56.10883712768555 C 8.557205200195312 55.31998443603516 8.388045310974121 54.48247528076172 8.388045310974121 53.61956405639648 L 8.388045310974121 51.13788604736328 L 7.843966007232666 51.13788604736328 L 4.890755176544189 54.09116363525391 C 4.665335178375244 54.3105354309082 4.346365451812744 54.43497467041016 4.013195514678955 54.43497467041016 C 3.850153923034668 54.43497467041016 3.700266122817993 54.40501403808594 3.57913613319397 54.34826278686523 C 3.133386850357056 54.16073608398438 2.845705270767212 53.72801971435547 2.845705270767212 53.24402618408203 L 2.845705270767212 50.2205696105957 C 0.9352143406867981 49.06782531738281 -0.2500146329402924 46.9730339050293 -0.2500146329402924 44.74356460571289 L -0.2500146329402924 39.07436370849609 C -0.2500146329402924 35.54851531982422 2.618465423583984 32.68003463745117 6.144315242767334 32.68003463745117 L 20.40811538696289 32.68003463745117 C 21.23405456542969 32.68003463745117 22.03802490234375 32.83536529541016 22.79769515991211 33.14169692993164 C 23.1948356628418 33.30179595947266 23.3876953125 33.75519561767578 23.22758483886719 34.15240478515625 C 23.10845565795898 34.44784545898438 22.82560539245605 34.63872528076172 22.50698471069336 34.63872528076172 C 22.40742492675781 34.63872528076172 22.30985450744629 34.61976623535156 22.21696472167969 34.58236694335938 C 21.64254570007324 34.35073471069336 21.03399467468262 34.23331451416016 20.40811538696289 34.23331451416016 L 6.144315242767334 34.23331451416016 C 3.474955320358276 34.23331451416016 1.303265333175659 36.40500640869141 1.303265333175659 39.07436370849609 L 1.303265333175659 44.74356460571289 C 1.303265333175659 46.44167709350586 2.211945295333862 48.03682708740234 3.674685478210449 48.90651702880859 C 4.121445178985596 49.17210388183594 4.398975372314453 49.65923690795898 4.398975372314453 50.17778396606445 L 4.398975372314453 52.38613510131836 L 6.76744556427002 50.01767730712891 C 7.046835422515869 49.73835372924805 7.418195247650146 49.58454513549805 7.813135147094727 49.58454513549805 L 8.388045310974121 49.58454513549805 L 8.388045310974121 47.95043563842773 C 8.388045310974121 44.42455673217773 11.25652503967285 41.55603408813477 14.7823657989502 41.55603408813477 L 25.24915504455566 41.55603408813477 L 25.24915504455566 39.07436370849609 C 25.24915504455566 37.84101486206055 24.78516578674316 36.66619491577148 23.94266510009766 35.76632690429688 C 23.8008861541748 35.61496734619141 23.72652626037598 35.41739654541016 23.73333549499512 35.21005630493164 C 23.74015617370605 35.00272369384766 23.82730484008789 34.81044387817383 23.97873497009277 34.66864395141602 C 24.12314605712891 34.53337478637695 24.3116455078125 34.45886611938477 24.50948524475098 34.45886611938477 C 24.72357559204102 34.45886611938477 24.93025588989258 34.54847717285156 25.07652473449707 34.70472717285156 C 26.18948554992676 35.89337539672852 26.80243492126465 37.44521713256836 26.80243492126465 39.07436370849609 L 26.80243492126465 41.55603408813477 L 29.11641502380371 41.55603408813477 C 32.64226531982422 41.55603408813477 35.51074600219727 44.42454528808594 35.51074600219727 47.95042419433594 L 35.51074600219727 53.61956405639648 C 35.51074600219727 55.8559455871582 34.37552642822266 57.88692092895508 32.47150421142578 59.06197357177734 L 32.47150421142578 62.70891571044922 C 32.47150421142578 63.19509506225586 32.18124389648438 63.62952423095703 31.73202514648438 63.815673828125 L 31.72521591186523 63.81849670410156 L 31.7182559967041 63.82090377807617 C 31.55482482910156 63.87759399414062 31.40499877929688 63.90515518188477 31.26023483276367 63.90515518188477 Z" stroke="none"/>
      <path d="M 6.144306182861328 32.93003463745117 C 2.756317138671875 32.93003463745117 -1.52587890625e-05 35.68636703491211 -1.52587890625e-05 39.07436370849609 L -1.52587890625e-05 44.74356460571289 C -1.52587890625e-05 46.89901733398438 1.152843475341797 48.92340469360352 3.008655548095703 50.02675628662109 C 3.062366485595703 50.0587043762207 3.095695495605469 50.11655426025391 3.095695495605469 50.1778564453125 L 3.095695495605469 53.24402618408203 C 3.095695495605469 53.6287956237793 3.325374603271484 53.97251510620117 3.680875778198242 54.11982727050781 C 3.918123245239258 54.23386764526367 4.402555465698242 54.2174186706543 4.71397590637207 53.91439437866211 L 7.68896484375 50.93933486938477 C 7.72215461730957 50.90614700317383 7.7662353515625 50.88788604736328 7.813135147094727 50.88788604736328 L 8.638046264648438 50.88788604736328 L 8.638046264648438 53.61956405639648 C 8.638046264648438 54.44887542724609 8.800575256347656 55.25361633300781 9.121086120605469 56.01144409179688 C 9.234375 56.27926635742188 9.543394088745117 56.40440368652344 9.811294555664062 56.29132461547852 C 10.07918548583984 56.17803573608398 10.20446586608887 55.86902618408203 10.09124565124512 55.60111618041992 C 9.825954437255859 54.9738655090332 9.691394805908203 54.30721664428711 9.691394805908203 53.61962509155273 L 9.691394805908203 47.95050430297852 C 9.691394805908203 45.14321517944336 11.97521591186523 42.8593864440918 14.78243446350098 42.8593864440918 L 29.11641502380371 42.8593864440918 C 31.92364501953125 42.8593864440918 34.20746612548828 45.14321517944336 34.20746612548828 47.95050430297852 L 34.20746612548828 53.61962509155273 C 34.20746612548828 55.41242599487305 33.29075622558594 57.03965377807617 31.75518608093262 57.9725456237793 C 31.39328575134277 58.19243621826172 31.16842651367188 58.59373474121094 31.16842651367188 59.0197639465332 L 31.16842651367188 62.45465469360352 L 27.78436470031738 59.07051467895508 C 27.55227470397949 58.83843612670898 27.24367523193359 58.71060562133789 26.91544532775879 58.71060562133789 L 14.7823657989502 58.71060562133789 C 13.50478553771973 58.71060562133789 12.28312492370605 58.23541641235352 11.34231567382812 57.37262725830078 C 11.12799263000488 57.17614364624023 10.79487609863281 57.19046783447266 10.59818458557129 57.4047966003418 C 10.40156555175781 57.61917495727539 10.41595458984375 57.95230484008789 10.63034629821777 58.1489143371582 C 11.76591491699219 59.19041442871094 13.24039459228516 59.76395416259766 14.78229522705078 59.76395416259766 L 26.91530609130859 59.76395416259766 C 26.96151542663574 59.76395416259766 27.00676536560059 59.78268432617188 27.03940582275391 59.81540679931641 L 30.60328483581543 63.3792839050293 C 30.87848663330078 63.59078216552734 31.14749526977539 63.75426864624023 31.63632583618164 63.584716796875 C 31.9918155670166 63.43740463256836 32.22149658203125 63.09368515014648 32.22149658203125 62.70891571044922 L 32.22149658203125 59.01969528198242 C 32.22149658203125 58.95915603637695 32.25235366821289 58.90275573730469 32.30193710327148 58.87265396118164 C 34.15471649169922 57.74713516235352 35.26074600219727 55.78341674804688 35.26074600219727 53.61955642700195 L 35.26074600219727 47.95042419433594 C 35.26074600219727 44.56243515014648 32.50441360473633 41.80603408813477 29.11641502380371 41.80603408813477 L 26.55243492126465 41.80603408813477 L 26.55243492126465 39.07436370849609 C 26.55243492126465 37.50897598266602 25.96347427368164 36.01776504516602 24.89400482177734 34.87557601928711 C 24.6951847076416 34.66318893432617 24.36186599731445 34.65230178833008 24.14960479736328 34.85112380981445 C 23.93728637695312 35.04995727539062 23.92633438110352 35.38320541381836 24.12516403198242 35.59546661376953 C 25.01115417480469 36.54178619384766 25.49915504455566 37.77728652954102 25.49915504455566 39.07436370849609 L 25.49915504455566 41.80603408813477 L 14.7823657989502 41.80603408813477 C 11.39437484741211 41.80603408813477 8.638046264648438 44.56243515014648 8.638046264648438 47.95043563842773 L 8.638046264648438 49.83454513549805 L 7.813135147094727 49.83454513549805 C 7.484975814819336 49.83454513549805 7.176374435424805 49.96235656738281 6.944225311279297 50.1944465637207 L 4.148975372314453 52.98969650268555 L 4.148975372314453 50.17778396606445 C 4.148975372314453 49.74700546264648 3.9183349609375 49.34220504760742 3.546924591064453 49.12140655517578 C 2.008815765380859 48.20690536499023 1.053264617919922 46.52939605712891 1.053264617919922 44.74356460571289 L 1.053264617919922 39.07436370849609 C 1.053264617919922 36.26713562011719 3.337085723876953 33.98331451416016 6.144315719604492 33.98331451416016 L 20.40811538696289 33.98331451416016 C 21.06608581542969 33.98331451416016 21.70607566833496 34.10679626464844 22.31033515930176 34.35045623779297 C 22.58008575439453 34.45905303955078 22.88696670532227 34.32862091064453 22.9957160949707 34.05893707275391 C 23.10445404052734 33.78917694091797 22.97394561767578 33.48229598999023 22.70419502258301 33.3735466003418 C 21.9742546081543 33.07920455932617 21.20168495178223 32.93003463745117 20.40811538696289 32.93003463745117 L 6.144306182861328 32.93003463745117 M 6.144306182861328 32.43003845214844 L 20.40811538696289 32.43003845214844 C 21.2662353515625 32.43003845214844 22.10166549682617 32.59146881103516 22.89118576049805 32.90982437133789 C 23.41616439819336 33.12147521972656 23.67110443115234 33.7208251953125 23.4594554901123 34.24586486816406 C 23.30197525024414 34.63641357421875 22.92810440063477 34.88872528076172 22.5069751739502 34.88872528076172 C 22.37530517578125 34.88872528076172 22.2463264465332 34.86367416381836 22.12362670898438 34.81428527832031 C 21.57889556884766 34.59463500976562 21.00181579589844 34.48331451416016 20.40811538696289 34.48331451416016 L 6.144315719604492 34.48331451416016 C 3.61280632019043 34.48331451416016 1.553264617919922 36.54285430908203 1.553264617919922 39.07436370849609 L 1.553264617919922 44.74356460571289 C 1.553264617919922 46.35395431518555 2.415103912353516 47.86676406860352 3.802455902099609 48.69163513183594 C 4.324594497680664 49.00204467773438 4.648975372314453 49.57150650024414 4.648975372314453 50.17778396606445 L 4.648975372314453 51.78259658813477 L 6.590675354003906 49.84089660644531 C 6.917295455932617 49.51435470581055 7.351425170898438 49.33454513549805 7.813135147094727 49.33454513549805 L 8.138046264648438 49.33454513549805 L 8.138046264648438 47.95043563842773 C 8.138046264648438 44.28670501708984 11.11867523193359 41.30603408813477 14.7823657989502 41.30603408813477 L 24.99915504455566 41.30603408813477 L 24.99915504455566 39.07436370849609 C 24.99915504455566 37.90470504760742 24.55914497375488 36.79056549072266 23.76016616821289 35.93719482421875 C 23.5727653503418 35.73713684082031 23.4744758605957 35.47594451904297 23.48347473144531 35.20184707641602 C 23.49247550964355 34.92778396606445 23.607666015625 34.67361450195312 23.80783462524414 34.48616409301758 C 23.99872589111328 34.30736541748047 24.24791526794434 34.20886611938477 24.50944519042969 34.20886611938477 C 24.79250526428223 34.20888519287109 25.06570434570312 34.32734680175781 25.25903511047363 34.53388595581055 C 26.41550445556641 35.76899719238281 27.05243492126465 37.38151550292969 27.05243492126465 39.07436370849609 L 27.05243492126465 41.30603408813477 L 29.11641502380371 41.30603408813477 C 32.78011703491211 41.30603408813477 35.76074600219727 44.28669357299805 35.76074600219727 47.95042419433594 L 35.76074600219727 53.61955642700195 C 35.76074600219727 55.89655303955078 34.62826156616211 57.96860122680664 32.72149658203125 59.19977951049805 L 32.72149658203125 62.70891571044922 C 32.72149658203125 63.29655456542969 32.37067413330078 63.8216438293457 31.82773590087891 64.046630859375 L 31.80017471313477 64.05710601806641 C 31.60995483398438 64.12308502197266 31.43331527709961 64.1551513671875 31.26016616821289 64.1551513671875 C 30.79231643676758 64.1551513671875 30.47114562988281 63.9083366394043 30.29860496520996 63.77573394775391 L 30.27277565002441 63.75587463378906 L 26.78085517883301 60.26395416259766 L 14.78229522705078 60.26395416259766 C 13.11494445800781 60.26395416259766 11.52039527893066 59.64368438720703 10.29238510131836 58.51740646362305 C 10.09027481079102 58.33205413818359 9.972444534301758 58.07908630371094 9.960605621337891 57.80510711669922 C 9.948764801025391 57.53113555908203 10.04433631896973 57.26894378662109 10.22969627380371 57.06683731079102 C 10.42377471923828 56.85537719726562 10.69957542419434 56.73416519165039 10.98649597167969 56.73416519165039 C 11.24399566650391 56.73416519165039 11.49035453796387 56.83002471923828 11.68020629882812 57.00407409667969 C 12.52862548828125 57.78213500976562 13.63030624389648 58.21060562133789 14.7823657989502 58.21060562133789 L 26.91544532775879 58.21060562133789 C 27.37722587585449 58.21060562133789 27.81137466430664 58.39042663574219 28.13791465759277 58.71695709228516 L 30.66842651367188 61.24752426147461 L 30.66842651367188 59.0197639465332 C 30.66842651367188 58.42023468017578 30.98536491394043 57.855224609375 31.49555587768555 57.54523468017578 C 32.88059616088867 56.70379638671875 33.70746612548828 55.23628616333008 33.70746612548828 53.61962509155273 L 33.70746612548828 47.95050430297852 C 33.70746612548828 45.4189567565918 31.64792633056641 43.3593864440918 29.11641502380371 43.3593864440918 L 14.78243446350098 43.3593864440918 C 12.25092506408691 43.3593864440918 10.1913948059082 45.4189567565918 10.1913948059082 47.95050430297852 L 10.1913948059082 53.61962509155273 C 10.1913948059082 54.23984527587891 10.31263542175293 54.84098434448242 10.55175590515137 55.40634536743164 C 10.77214622497559 55.92786407470703 10.52731513977051 56.53139495849609 10.00604629516602 56.75183486938477 C 9.878435134887695 56.80571365356445 9.744094848632812 56.83296585083008 9.606475830078125 56.83296585083008 C 9.192914962768555 56.83296585083008 8.821636199951172 56.58695602416992 8.660585403442383 56.20623397827148 C 8.31385612487793 55.38638687133789 8.138046264648438 54.51611709594727 8.138046264648438 53.61956405639648 L 8.138046264648438 51.38788604736328 L 7.947517395019531 51.38788604736328 L 5.062665939331055 54.27274703979492 C 4.793424606323242 54.53472518920898 4.410905838012695 54.68497467041016 4.013195037841797 54.68497467041016 C 3.815679550170898 54.68497467041016 3.630844116210938 54.64757537841797 3.477548599243164 54.57673645019531 C 2.941387176513672 54.34905242919922 2.595695495605469 53.82736968994141 2.595695495605469 53.24402618408203 L 2.595695495605469 50.35991287231445 C 0.6816444396972656 49.14781188964844 -0.5000152587890625 47.01284408569336 -0.5000152587890625 44.74356460571289 L -0.5000152587890625 39.07436370849609 C -0.5000152587890625 35.41066360473633 2.480613708496094 32.43003845214844 6.144306182861328 32.43003845214844 Z" stroke="none" fill="#fff"/>
    </g>
    <g id="Path_61576" data-name="Path 61576" transform="translate(-157.675 -154.356)" fill="#fff">
      <path d="M 176.6249237060547 211.2414855957031 C 175.5142059326172 211.2414855957031 174.6105804443359 210.4568634033203 174.6105804443359 209.4924163818359 C 174.6105804443359 208.5279541015625 175.5142059326172 207.7433013916016 176.6249237060547 207.7433013916016 C 177.2416534423828 207.7433013916016 177.8098602294922 207.9817810058594 178.1900939941406 208.3909149169922 C 178.3435211181641 208.2769165039062 178.4746856689453 208.1377105712891 178.5790863037109 207.9781646728516 C 178.0044250488281 207.6197662353516 177.6453552246094 206.9862518310547 177.6453552246094 206.2986297607422 L 177.6453552246094 204.3995819091797 C 177.6453552246094 203.6501007080078 178.0755310058594 202.9649810791016 178.7355651855469 202.6316680908203 C 178.3375854492188 201.0989837646484 176.9425506591797 200.0062561035156 175.3452758789062 200.0062561035156 C 173.7409973144531 200.0062561035156 172.3451538085938 201.0985717773438 171.9529724121094 202.630615234375 C 172.6142578125 202.9635620117188 173.0452117919922 203.6491394042969 173.0452117919922 204.3995819091797 L 173.0452117919922 206.2986297607422 C 173.0452117919922 207.3899078369141 172.1574096679688 208.2777252197266 171.0661315917969 208.2777252197266 C 169.974853515625 208.2777252197266 169.0870361328125 207.3899078369141 169.0870361328125 206.2986297607422 L 169.0870361328125 204.3995819091797 C 169.0870361328125 203.5688323974609 169.6122741699219 202.8269348144531 170.3824157714844 202.5427551269531 C 170.8383483886719 200.1637420654297 172.9013977050781 198.4529724121094 175.3452758789062 198.4529724121094 C 176.6173858642578 198.4529724121094 177.8331298828125 198.9272003173828 178.7685699462891 199.7882995605469 C 179.5602874755859 200.5170593261719 180.1028900146484 201.4902496337891 180.3073272705078 202.5425262451172 C 181.0780029296875 202.8264617919922 181.603515625 203.5684967041016 181.603515625 204.399658203125 L 181.603515625 206.2987060546875 C 181.603515625 207.1658782958984 181.021728515625 207.9401092529297 180.2012634277344 208.1914215087891 C 179.9106140136719 208.9765167236328 179.3230285644531 209.614501953125 178.5632934570312 209.9691467285156 C 178.3206329345703 210.7135162353516 177.5276794433594 211.2414855957031 176.6249237060547 211.2414855957031 Z M 176.6249237060547 209.296630859375 C 176.3236389160156 209.296630859375 176.1710357666016 209.4466247558594 176.1637573242188 209.4942779541016 C 176.1710510253906 209.538330078125 176.3236541748047 209.6882934570312 176.6249237060547 209.6882934570312 C 176.9261627197266 209.6882934570312 177.0788421630859 209.5383148193359 177.0861511230469 209.4906921386719 C 177.0788421630859 209.4466400146484 176.9262084960938 209.296630859375 176.6249237060547 209.296630859375 Z M 179.6244201660156 203.9739227294922 C 179.3896331787109 203.9739227294922 179.1986236572266 204.1649322509766 179.1986236572266 204.3997192382812 L 179.1986236572266 206.2987670898438 C 179.1986236572266 206.5335540771484 179.3896331787109 206.7245788574219 179.6244201660156 206.7245788574219 C 179.8592224121094 206.7245788574219 180.0502319335938 206.5335540771484 180.0502319335938 206.2987670898438 L 180.0502319335938 204.3997192382812 C 180.0502319335938 204.1649322509766 179.8592224121094 203.9739227294922 179.6244201660156 203.9739227294922 Z M 171.0661315917969 203.9739227294922 C 170.8313293457031 203.9739227294922 170.6403198242188 204.1649322509766 170.6403198242188 204.3997192382812 L 170.6403198242188 206.2987670898438 C 170.6403198242188 206.5335540771484 170.8313293457031 206.7245788574219 171.0661315917969 206.7245788574219 C 171.3009185791016 206.7245788574219 171.491943359375 206.5335540771484 171.491943359375 206.2987670898438 L 171.491943359375 204.3997192382812 C 171.491943359375 204.1649322509766 171.3009185791016 203.9739227294922 171.0661315917969 203.9739227294922 Z" stroke="none"/>
      <path d="M 176.6249237060547 210.9914855957031 C 177.4786224365234 210.9914855957031 178.1924438476562 210.4736633300781 178.3546447753906 209.7882843017578 C 179.1314697265625 209.4610900878906 179.7430267333984 208.8091125488281 180.0084381103516 207.9842681884766 C 180.7775726318359 207.8091278076172 181.353515625 207.1201629638672 181.353515625 206.2987060546875 L 181.353515625 204.399658203125 C 181.353515625 203.6066284179688 180.8167572021484 202.9370880126953 180.0875701904297 202.7340698242188 C 179.9159545898438 201.6763153076172 179.3961334228516 200.7057495117188 178.5992584228516 199.9722290039062 C 177.7100830078125 199.1537170410156 176.5544738769531 198.7029724121094 175.3452758789062 198.7029724121094 C 172.9657897949219 198.7029724121094 170.9755554199219 200.4169158935547 170.6025085449219 202.734130859375 C 169.8735961914062 202.9373016357422 169.3370361328125 203.6067657470703 169.3370361328125 204.3995819091797 L 169.3370361328125 206.2986297607422 C 169.3370361328125 207.2520599365234 170.1127014160156 208.0277252197266 171.0661315917969 208.0277252197266 C 172.01953125 208.0277252197266 172.7952117919922 207.2520599365234 172.7952117919922 206.2986297607422 L 172.7952117919922 204.3995819091797 C 172.7952117919922 203.6561431884766 172.3235321044922 203.0208435058594 171.6637573242188 202.7770385742188 C 172.0052185058594 201.0322418212891 173.5304565429688 199.7562561035156 175.3452758789062 199.7562561035156 C 177.1371154785156 199.7562561035156 178.6815490722656 201.0545654296875 179.0254211425781 202.777587890625 C 178.3663482666016 203.021728515625 177.8953552246094 203.6566314697266 177.8953552246094 204.3995819091797 L 177.8953552246094 206.2986297607422 C 177.8953552246094 207.0013732910156 178.3169555664062 207.6071472167969 178.9203948974609 207.8773193359375 C 178.7529602050781 208.2370910644531 178.4775695800781 208.5309448242188 178.1379699707031 208.7221984863281 C 177.8291625976562 208.2858428955078 177.2665710449219 207.9933013916016 176.6249237060547 207.9933013916016 C 175.6520233154297 207.9933013916016 174.8605804443359 208.6658020019531 174.8605804443359 209.4924163818359 C 174.8605804443359 210.3189849853516 175.652099609375 210.9914855957031 176.6249237060547 210.9914855957031 M 176.6249237060547 209.046630859375 C 177.0439910888672 209.046630859375 177.3360595703125 209.2816162109375 177.3360595703125 209.4924926757812 C 177.3360595703125 209.703369140625 177.0439147949219 209.9382934570312 176.6249237060547 209.9382934570312 C 176.2058715820312 209.9382934570312 175.9138488769531 209.703369140625 175.9138488769531 209.4924926757812 C 175.9138488769531 209.2816162109375 176.2058563232422 209.046630859375 176.6249237060547 209.046630859375 M 179.6244201660156 203.7239227294922 C 179.9970855712891 203.7239227294922 180.3002319335938 204.0270690917969 180.3002319335938 204.3997192382812 L 180.3002319335938 206.2987670898438 C 180.3002319335938 206.6714324951172 179.9970855712891 206.9745788574219 179.6244201660156 206.9745788574219 C 179.2517852783203 206.9745788574219 178.9486236572266 206.6714324951172 178.9486236572266 206.2987670898438 L 178.9486236572266 204.3997192382812 C 178.9486236572266 204.0270690917969 179.2517852783203 203.7239227294922 179.6244201660156 203.7239227294922 M 171.0661315917969 203.7239227294922 C 171.4387817382812 203.7239227294922 171.741943359375 204.0270690917969 171.741943359375 204.3997192382812 L 171.741943359375 206.2987670898438 C 171.741943359375 206.6714324951172 171.4387817382812 206.9745788574219 171.0661315917969 206.9745788574219 C 170.6934814453125 206.9745788574219 170.3903198242188 206.6714324951172 170.3903198242188 206.2987670898438 L 170.3903198242188 204.3997192382812 C 170.3903198242188 204.0270690917969 170.6934814453125 203.7239227294922 171.0661315917969 203.7239227294922 M 176.6249237060547 211.4914855957031 C 175.3763580322266 211.4914855957031 174.3605804443359 210.5947113037109 174.3605804443359 209.4924163818359 C 174.3605804443359 208.3901062011719 175.3763580322266 207.4933013916016 176.6249237060547 207.4933013916016 C 177.2232360839844 207.4933013916016 177.7820892333984 207.6967468261719 178.1986389160156 208.0532684326172 C 178.2063598632812 208.0454559326172 178.2139892578125 208.0375366210938 178.2215270996094 208.029541015625 C 177.7071990966797 207.6120300292969 177.3953552246094 206.9788818359375 177.3953552246094 206.2986297607422 L 177.3953552246094 204.3995819091797 C 177.3953552246094 203.6267242431641 177.8014068603516 202.9146728515625 178.4403991699219 202.5118255615234 C 178.0114135742188 201.1850128173828 176.7642974853516 200.2562561035156 175.3452758789062 200.2562561035156 C 173.9198760986328 200.2562561035156 172.6717987060547 201.1842956542969 172.2476348876953 202.5101928710938 C 172.8881378173828 202.9127349853516 173.2952117919922 203.6255340576172 173.2952117919922 204.3995819091797 L 173.2952117919922 206.2986297607422 C 173.2952117919922 207.5277557373047 172.2952575683594 208.5277252197266 171.0661315917969 208.5277252197266 C 169.8370056152344 208.5277252197266 168.8370361328125 207.5277557373047 168.8370361328125 206.2986297607422 L 168.8370361328125 204.3995819091797 C 168.8370361328125 203.5119781494141 169.3692626953125 202.7144622802734 170.1643371582031 202.3616027832031 C 170.6933135986328 199.9345397949219 172.8265838623047 198.2029724121094 175.3452758789062 198.2029724121094 C 176.6802978515625 198.2029724121094 177.9561767578125 198.7006530761719 178.9378814697266 199.6043548583984 C 179.7350616455078 200.338134765625 180.2915954589844 201.3081817626953 180.5249481201172 202.3611145019531 C 181.3207702636719 202.7136688232422 181.853515625 203.5114898681641 181.853515625 204.399658203125 L 181.853515625 206.2987060546875 C 181.853515625 207.2334289550781 181.2533264160156 208.0723114013672 180.3917694091797 208.3908233642578 C 180.0784912109375 209.1535339355469 179.5012359619141 209.7775573730469 178.7638092041016 210.1496734619141 C 178.4515228271484 210.9403839111328 177.5936584472656 211.4914855957031 176.6249237060547 211.4914855957031 Z M 179.6244201660156 204.2239227294922 C 179.5274810791016 204.2239227294922 179.4486236572266 204.3027801513672 179.4486236572266 204.3997192382812 L 179.4486236572266 206.2987670898438 C 179.4486236572266 206.3957061767578 179.5274810791016 206.4745788574219 179.6244201660156 206.4745788574219 C 179.7213592529297 206.4745788574219 179.8002319335938 206.3957061767578 179.8002319335938 206.2987670898438 L 179.8002319335938 204.3997192382812 C 179.8002319335938 204.3027801513672 179.7213592529297 204.2239227294922 179.6244201660156 204.2239227294922 Z M 171.0661315917969 204.2239227294922 C 170.9691925048828 204.2239227294922 170.8903198242188 204.3027801513672 170.8903198242188 204.3997192382812 L 170.8903198242188 206.2987670898438 C 170.8903198242188 206.3957061767578 170.9691925048828 206.4745788574219 171.0661315917969 206.4745788574219 C 171.1630706787109 206.4745788574219 171.241943359375 206.3957061767578 171.241943359375 206.2987670898438 L 171.241943359375 204.3997192382812 C 171.241943359375 204.3027801513672 171.1630706787109 204.2239227294922 171.0661315917969 204.2239227294922 Z" stroke="none" fill="#fff"/>
    </g>
    <g id="Path_61577" data-name="Path 61577" transform="translate(-331.525 -180.471)" fill="#fff">
      <path d="M 360.7664794921875 228.0522766113281 L 356.5716247558594 228.0522766113281 C 356.1434020996094 228.0522766113281 355.7949829101562 227.7038726806641 355.7949829101562 227.275634765625 C 355.7949829101562 226.8473968505859 356.1434020996094 226.4989929199219 356.5716247558594 226.4989929199219 L 360.7664794921875 226.4989929199219 C 361.1947021484375 226.4989929199219 361.5431213378906 226.8473968505859 361.5431213378906 227.275634765625 C 361.5431213378906 227.7038726806641 361.1947021484375 228.0522766113281 360.7664794921875 228.0522766113281 Z" stroke="none"/>
      <path d="M 360.7664794921875 227.8022766113281 C 361.0573120117188 227.8022766113281 361.2931213378906 227.5665435791016 361.2931213378906 227.275634765625 C 361.2931213378906 226.9847412109375 361.0573120117188 226.7489929199219 360.7664794921875 226.7489929199219 L 356.5716247558594 226.7489929199219 C 356.2807922363281 226.7489929199219 356.0449829101562 226.9847412109375 356.0449829101562 227.275634765625 C 356.0449829101562 227.5665435791016 356.2807922363281 227.8022766113281 356.5716247558594 227.8022766113281 L 360.7664794921875 227.8022766113281 M 360.7664794921875 228.3022766113281 L 356.5716247558594 228.3022766113281 C 356.0055236816406 228.3022766113281 355.5449829101562 227.8417205810547 355.5449829101562 227.275634765625 C 355.5449829101562 226.7095489501953 356.0055236816406 226.2489929199219 356.5716247558594 226.2489929199219 L 360.7664794921875 226.2489929199219 C 361.3325805664062 226.2489929199219 361.7931213378906 226.7095489501953 361.7931213378906 227.275634765625 C 361.7931213378906 227.8417205810547 361.3325805664062 228.3022766113281 360.7664794921875 228.3022766113281 Z" stroke="none" fill="#fff"/>
    </g>
    <g id="Path_61578" data-name="Path 61578" transform="translate(-331.525 -212.346)" fill="#fff">
      <path d="M 359.8061828613281 262.2852783203125 L 356.5716247558594 262.2852783203125 C 356.1433715820312 262.2852783203125 355.7949829101562 261.9368896484375 355.7949829101562 261.5086364746094 C 355.7949829101562 261.0803833007812 356.1433715820312 260.7319946289062 356.5716247558594 260.7319946289062 L 359.8061828613281 260.7319946289062 C 360.2344360351562 260.7319946289062 360.5828247070312 261.0803833007812 360.5828247070312 261.5086364746094 C 360.5828247070312 261.9368896484375 360.2344360351562 262.2852783203125 359.8061828613281 262.2852783203125 Z" stroke="none"/>
      <path d="M 359.8061828613281 262.0352783203125 C 360.0970153808594 262.0352783203125 360.3328247070312 261.7995300292969 360.3328247070312 261.5086364746094 C 360.3328247070312 261.2177429199219 360.0970153808594 260.9819946289062 359.8061828613281 260.9819946289062 L 356.5716247558594 260.9819946289062 C 356.2807922363281 260.9819946289062 356.0449829101562 261.2177429199219 356.0449829101562 261.5086364746094 C 356.0449829101562 261.7995300292969 356.2807922363281 262.0352783203125 356.5716247558594 262.0352783203125 L 359.8061828613281 262.0352783203125 M 359.8061828613281 262.5352783203125 L 356.5716247558594 262.5352783203125 C 356.0055236816406 262.5352783203125 355.5449829101562 262.0747375488281 355.5449829101562 261.5086364746094 C 355.5449829101562 260.9425354003906 356.0055236816406 260.4819946289062 356.5716247558594 260.4819946289062 L 359.8061828613281 260.4819946289062 C 360.3722839355469 260.4819946289062 360.8328247070312 260.9425354003906 360.8328247070312 261.5086364746094 C 360.8328247070312 262.0747375488281 360.3722839355469 262.5352783203125 359.8061828613281 262.5352783203125 Z" stroke="none" fill="#fff"/>
    </g>
    <g id="Ellipse_15" data-name="Ellipse 15" transform="translate(4.396 39.033)" fill="#fff" stroke="#fff" stroke-width="0.5">
      <circle cx="0.785" cy="0.785" r="0.785" stroke="none"/>
      <circle cx="0.785" cy="0.785" r="1.035" fill="none"/>
    </g>
    <g id="Ellipse_16" data-name="Ellipse 16" transform="translate(6.774 39.033)" fill="#fff" stroke="#fff" stroke-width="0.5">
      <circle cx="0.785" cy="0.785" r="0.785" stroke="none"/>
      <circle cx="0.785" cy="0.785" r="1.035" fill="none"/>
    </g>
    <g id="Ellipse_17" data-name="Ellipse 17" transform="translate(9.138 39.033)" fill="#fff" stroke="#fff" stroke-width="0.5">
      <circle cx="0.785" cy="0.785" r="0.785" stroke="none"/>
      <circle cx="0.785" cy="0.785" r="1.035" fill="none"/>
    </g>
  </g>
</svg>
