<svg xmlns="http://www.w3.org/2000/svg" width="33.836" height="31.614" viewBox="0 0 33.836 31.614">
  <g id="icon-briefcase" transform="translate(-15.75 -31.75)">
    <path id="Path_61572" data-name="Path 61572" d="M47.669,38.667H39.335V37a5.006,5.006,0,0,0-5-5H31a5.006,5.006,0,0,0-5,5v1.667H17.667A1.669,1.669,0,0,0,16,40.334v20a2.781,2.781,0,0,0,2.778,2.778h27.78a2.781,2.781,0,0,0,2.778-2.778v-20A1.669,1.669,0,0,0,47.669,38.667Zm-10.556,0V37.556h1.111v1.111Zm-1.111,0H29.334V37A1.669,1.669,0,0,1,31,35.334h3.334A1.669,1.669,0,0,1,36,37Zm-5-5.556h3.334a3.9,3.9,0,0,1,3.849,3.334H37.057a2.783,2.783,0,0,0-2.722-2.222H31a2.783,2.783,0,0,0-2.722,2.222H27.152A3.9,3.9,0,0,1,31,33.111Zm-3.889,4.445h1.111v1.111H27.112Zm21.113,22.78A1.669,1.669,0,0,1,46.558,62H18.778a1.669,1.669,0,0,1-1.667-1.667v-11a7.837,7.837,0,0,0,1.667,1.951v7.381a1.669,1.669,0,0,0,1.667,1.667H44.891a1.669,1.669,0,0,0,1.667-1.667V51.287a7.837,7.837,0,0,0,1.667-1.951ZM41.558,52H37.113v1.111h4.445a7.731,7.731,0,0,0,3.889-1.044v6.6a.556.556,0,0,1-.556.556H20.445a.556.556,0,0,1-.556-.556v-6.6a7.731,7.731,0,0,0,3.889,1.044h4.445V52H23.778a6.675,6.675,0,0,1-6.667-6.667v-5a.556.556,0,0,1,.556-.556h30a.556.556,0,0,1,.556.556v5A6.675,6.675,0,0,1,41.558,52Z" fill="#fff" stroke="#fff" stroke-width="0.5"/>
    <path id="Path_61573" data-name="Path 61573" d="M211.334,200A3.337,3.337,0,0,0,208,203.334v9.445a.556.556,0,0,0,.556.556h5.556a.556.556,0,0,0,.556-.556v-9.445A3.337,3.337,0,0,0,211.334,200Zm0,1.111a2.225,2.225,0,0,1,2.222,2.222v1.111h-4.445v-1.111A2.225,2.225,0,0,1,211.334,201.111Zm2.222,4.445v1.111h-4.445v-1.111Zm-4.445,6.667v-4.445h4.445v4.445Z" transform="translate(-178.666 -156.332)" fill="#fff" stroke="#fff" stroke-width="0.5"/>
    <path id="Path_61574" data-name="Path 61574" d="M241.667,336h-1.111a.556.556,0,1,0,0,1.111h1.111a.556.556,0,1,0,0-1.111Z" transform="translate(-208.443 -282.887)" fill="#fff" stroke="#fff" stroke-width="0.5"/>
  </g>
</svg>
