<svg xmlns="http://www.w3.org/2000/svg" width="19.303" height="19.307" viewBox="0 0 19.303 19.307">
  <g id="insta" transform="translate(-292 -5362.192)">
    <g id="instagram_2_" data-name="instagram (2)" transform="translate(296.867 5365.534)">
      <path id="Path_61767" data-name="Path 61767" d="M129.909,124.5a4.96,4.96,0,1,0,4.96,4.96A4.961,4.961,0,0,0,129.909,124.5Zm0,8.177a3.217,3.217,0,1,1,3.217-3.217A3.218,3.218,0,0,1,129.909,132.677Zm0,0" transform="translate(-124.949 -123.146)" fill="#fff"/>
      <path id="Path_61768" data-name="Path 61768" d="M364.766,89.76a1.158,1.158,0,1,1-1.158-1.158A1.158,1.158,0,0,1,364.766,89.76Zm0,0" transform="translate(-353.492 -88.602)" fill="#fff"/>
    </g>
    <path id="Path_61766" data-name="Path 61766" d="M19.7,5.676a7.055,7.055,0,0,0-.449-2.342A4.946,4.946,0,0,0,16.429.509,7.073,7.073,0,0,0,14.087.06C13.053.011,12.725,0,10.1,0S7.155.011,6.125.057A7.057,7.057,0,0,0,3.783.505,4.711,4.711,0,0,0,2.07,1.622,4.754,4.754,0,0,0,.958,3.33,7.074,7.074,0,0,0,.509,5.673C.46,6.706.449,7.034.449,9.656S.46,12.6.505,13.635a7.054,7.054,0,0,0,.449,2.342A4.945,4.945,0,0,0,3.779,18.8a7.074,7.074,0,0,0,2.342.449c1.03.045,1.358.057,3.979.057s2.949-.011,3.979-.057a7.053,7.053,0,0,0,2.342-.449,4.938,4.938,0,0,0,2.825-2.825,7.079,7.079,0,0,0,.449-2.342c.045-1.03.057-1.358.057-3.979s0-2.949-.049-3.979Zm-1.739,7.883a5.292,5.292,0,0,1-.332,1.792A3.2,3.2,0,0,1,15.8,17.184a5.311,5.311,0,0,1-1.792.332c-1.018.045-1.324.057-3.9.057s-2.885-.011-3.9-.057a5.289,5.289,0,0,1-1.792-.332,2.971,2.971,0,0,1-1.109-.72,3,3,0,0,1-.72-1.109,5.312,5.312,0,0,1-.332-1.792c-.045-1.018-.057-1.324-.057-3.9s.011-2.885.057-3.9a5.289,5.289,0,0,1,.332-1.792,2.935,2.935,0,0,1,.724-1.109,3,3,0,0,1,1.109-.72A5.314,5.314,0,0,1,6.212,1.81c1.018-.045,1.324-.057,3.9-.057s2.885.011,3.9.057a5.292,5.292,0,0,1,1.792.332,2.969,2.969,0,0,1,1.109.72,3,3,0,0,1,.72,1.109,5.314,5.314,0,0,1,.332,1.792c.045,1.018.057,1.324.057,3.9s-.011,2.878-.057,3.9Zm0,0" transform="translate(291.552 5362.192)" fill="#fff"/>
  </g>
</svg>
