<svg xmlns="http://www.w3.org/2000/svg" width="19.822" height="19.013" viewBox="0 0 19.822 19.013">
  <g id="linked__in" transform="translate(-195.706 -5362.192)">
    <path id="XMLID_802_" d="M9.06,99.73H5.234a.307.307,0,0,0-.307.307v12.289a.307.307,0,0,0,.307.307H9.06a.307.307,0,0,0,.307-.307V100.037A.307.307,0,0,0,9.06,99.73Z" transform="translate(191.082 5268.571)" fill="#fff"/>
    <path id="XMLID_803_" d="M2.524.341A2.522,2.522,0,1,0,5.046,2.862,2.526,2.526,0,0,0,2.524.341Z" transform="translate(195.706 5361.852)" fill="#fff"/>
    <path id="XMLID_804_" d="M113.815,94.761a4.493,4.493,0,0,0-3.361,1.411v-.8a.307.307,0,0,0-.307-.307h-3.663a.307.307,0,0,0-.307.307v12.289a.307.307,0,0,0,.307.307H110.3a.307.307,0,0,0,.307-.307v-6.08c0-2.049.557-2.847,1.985-2.847,1.555,0,1.679,1.28,1.679,2.952v5.975a.307.307,0,0,0,.307.307H118.4a.307.307,0,0,0,.307-.307v-6.741C118.7,97.875,118.123,94.761,113.815,94.761Z" transform="translate(96.824 5273.235)" fill="#fff"/>
  </g>
</svg>
