<svg xmlns="http://www.w3.org/2000/svg" xmlns:xlink="http://www.w3.org/1999/xlink" width="510" height="1035" viewBox="0 0 510 1035">
  <defs>
    <clipPath id="clip-path">
      <rect id="Rectangle_3458" data-name="Rectangle 3458" width="510" height="1035" transform="translate(461.07 1959.829)" fill="#b8c6ce" stroke="#707070" stroke-width="1"/>
    </clipPath>
  </defs>
  <g id="news__pattern" transform="translate(-2 -1298)">
    <g id="Mask_Group_11" data-name="Mask Group 11" transform="translate(-459.07 -661.829)" opacity="0.5" clip-path="url(#clip-path)">
      <g id="Group_15406" data-name="Group 15406" transform="translate(-343.141 2009.019)" opacity="0.4">
        <g id="Group_15405" data-name="Group 15405" transform="translate(26.672 0)">
          <path id="Path_61618" data-name="Path 61618" d="M803.051,2314.333l-.1.014a42.523,42.523,0,0,0-73.618-30.1l-.074-.071L609.272,2428.361l43.052,149.462,135.408-76.538Z" transform="translate(109.134 -2270.704)" fill="#b8c6ce"/>
          <path id="Path_61619" data-name="Path 61619" d="M918.047,2367.48l-.074-.074a42.512,42.512,0,0,0-30.785-73.322v-.117l-186.794,17.123-75.246,136.123,149.875,41.618Z" transform="translate(326.216 -1952.615)" fill="#b8c6ce"/>
          <path id="Path_61620" data-name="Path 61620" d="M888.757,2513.457l-.014-.117a42.521,42.521,0,0,0,30.095-73.619l.074-.071L774.729,2319.664l-149.464,43.051L701.8,2498.121Z" transform="translate(327.815 -1601.26)" fill="#b8c6ce"/>
          <path id="Path_61621" data-name="Path 61621" d="M716.6,2628.438l.074-.085A42.513,42.513,0,0,0,790,2597.564h.117L772.994,2410.77l-136.126-75.229-26.162,168.085Z" transform="translate(128.729 -1384.166)" fill="#b8c6ce"/>
          <path id="Path_61622" data-name="Path 61622" d="M657.4,2628.438l-.074-.085A42.513,42.513,0,0,1,584,2597.564h-.118l17.124-186.793,136.126-75.229,26.148,168.085Z" transform="translate(-238.036 -1384.166)" fill="#b8c6ce"/>
          <path id="Path_61623" data-name="Path 61623" d="M573.667,2441.393l.088.075A42.523,42.523,0,0,0,604.54,2514.8v.1l186.779-17.123,75.246-136.126L716.7,2320.043Z" transform="translate(-557.74 -1596.064)" fill="#b8c6ce"/>
          <path id="Path_61624" data-name="Path 61624" d="M603.943,2294.422v.1a42.517,42.517,0,0,0-30.081,73.62l-.074.071L717.971,2488.2l149.464-43.05-76.551-135.406Z" transform="translate(-560.313 -1946.41)" fill="#b8c6ce"/>
          <path id="Path_61625" data-name="Path 61625" d="M657.09,2284.072l-.073.071a42.526,42.526,0,0,0-73.338,30.789h-.1L600.7,2501.725l136.127,75.243,41.614-149.874Z" transform="translate(-242.221 -2268.135)" fill="#b8c6ce"/>
        </g>
        <path id="Path_61626" data-name="Path 61626" d="M925.441,2289.406a10.663,10.663,0,0,0-13.456-1.205L652.308,2440.574l-43.668,76.389c4.711,2.217,9.479,4.3,13.956,6.9l58.458-39.66a16,16,0,0,1,21.247,1.248l27.131,27.13a16.036,16.036,0,0,1,1.248,21.261l-39.662,58.447c2.567,4.447,4.651,9.184,6.852,13.85l76.376-43.639.074.071,152.326-259.7A10.649,10.649,0,0,0,925.441,2289.406Z" transform="translate(127.151 -2056.533)" fill="#b8c6ce"/>
        <path id="Path_61627" data-name="Path 61627" d="M559.45,2360.866a10.734,10.734,0,0,1,11.533-6.454L1140.449,2551.2l18.342,117.918-181.116-86.544L562.355,2373.4A10.448,10.448,0,0,1,559.45,2360.866Z" transform="translate(-558.495 -1127.411)" fill="#b8c6ce"/>
        <path id="Path_61628" data-name="Path 61628" d="M1206.457,2360.866a10.755,10.755,0,0,0-11.548-6.454L625.46,2551.2,607.1,2669.116l181.129-86.544L1203.551,2373.4A10.489,10.489,0,0,0,1206.457,2360.866Z" transform="translate(106.134 -1127.411)" fill="#b8c6ce"/>
        <path id="Path_61629" data-name="Path 61629" d="M991.415,2383.562l-291.357-75.889-84.886,23.14c1.76,4.886,3.668,9.694,5.017,14.744l69.348,13.279a16.026,16.026,0,0,1,14.145,15.906v38.384a16.024,16.024,0,0,1-14.145,15.911l-69.348,13.275c-1.335,5.021-3.228,9.8-4.974,14.659l84.842,23.144v.085l291.357-75.917a10.528,10.528,0,0,0,0-20.722Z" transform="translate(216.48 -1765.218)" fill="#b8c6ce"/>
        <path id="Path_61630" data-name="Path 61630" d="M926.59,2622.287,774.236,2362.595l-76.4-43.657c-2.216,4.7-4.314,9.468-6.9,13.957l39.662,58.447a16.018,16.018,0,0,1-1.248,21.247l-27.131,27.13a16,16,0,0,1-21.247,1.245l-58.458-39.647c-4.448,2.571-9.187,4.639-13.867,6.854L652.3,2484.53l-.074.074,259.708,152.323a10.526,10.526,0,0,0,14.658-14.641Z" transform="translate(127.233 -1611.187)" fill="#b8c6ce"/>
        <path id="Path_61632" data-name="Path 61632" d="M881.947,2401.229,823.5,2440.875a16,16,0,0,1-21.247-1.244l-27.131-27.13a16,16,0,0,1-1.262-21.247l39.663-58.447c-2.569-4.461-4.652-9.2-6.853-13.864l-76.361,43.635-.073-.071L577.912,2622.229a10.523,10.523,0,0,0,14.644,14.644l259.692-152.355,43.653-76.393C891.206,2405.913,886.422,2403.813,881.947,2401.229Z" transform="translate(-318.16 -1611.104)" fill="#b8c6ce"/>
        <path id="Path_61634" data-name="Path 61634" d="M806.655,2606.2c2.216-4.7,4.314-9.464,6.9-13.938l-39.663-58.447a16.021,16.021,0,0,1,1.262-21.261l27.131-27.129a16,16,0,0,1,21.247-1.249l58.445,39.661c4.446-2.581,9.2-4.648,13.866-6.854L852.2,2440.61l.074-.057L592.554,2288.208a10.529,10.529,0,0,0-14.644,14.662l152.356,259.675Z" transform="translate(-318.188 -2056.516)" fill="#b8c6ce"/>
      </g>
    </g>
  </g>
</svg>
