<svg xmlns="http://www.w3.org/2000/svg" width="21.65" height="25.95" viewBox="0 0 21.65 25.95">
  <g id="profile" transform="translate(0 0)">
    <path id="Path_62109" data-name="Path 62109" d="M93.282,12.5A6.048,6.048,0,0,0,97.7,10.669,6.048,6.048,0,0,0,99.532,6.25,6.048,6.048,0,0,0,97.7,1.831a6.249,6.249,0,0,0-8.838,0A6.048,6.048,0,0,0,87.032,6.25a6.048,6.048,0,0,0,1.831,4.419A6.05,6.05,0,0,0,93.282,12.5ZM89.938,2.906a4.728,4.728,0,0,1,6.688,0A4.519,4.519,0,0,1,98.012,6.25a4.519,4.519,0,0,1-1.386,3.344,4.727,4.727,0,0,1-6.688,0A4.518,4.518,0,0,1,88.552,6.25a4.518,4.518,0,0,1,1.386-3.344Zm0,0" transform="translate(-82.621 0)" fill="#005b85"/>
    <path id="Path_62110" data-name="Path 62110" d="M21.6,254.736a15.439,15.439,0,0,0-.21-1.64,12.921,12.921,0,0,0-.4-1.649,8.144,8.144,0,0,0-.678-1.538,5.8,5.8,0,0,0-1.022-1.332,4.506,4.506,0,0,0-1.468-.922,5.074,5.074,0,0,0-1.874-.339,1.9,1.9,0,0,0-1.016.431c-.3.2-.661.428-1.058.682a6.062,6.062,0,0,1-1.369.6,5.317,5.317,0,0,1-3.349,0,6.045,6.045,0,0,1-1.368-.6c-.394-.252-.75-.481-1.059-.683a1.9,1.9,0,0,0-1.015-.431,5.067,5.067,0,0,0-1.874.34,4.5,4.5,0,0,0-1.468.922,5.8,5.8,0,0,0-1.022,1.332,8.158,8.158,0,0,0-.678,1.538,12.947,12.947,0,0,0-.4,1.648,15.332,15.332,0,0,0-.21,1.64c-.034.5-.052,1.011-.052,1.532a4.309,4.309,0,0,0,1.28,3.26,4.607,4.607,0,0,0,3.3,1.2h12.5a4.607,4.607,0,0,0,3.3-1.2,4.308,4.308,0,0,0,1.28-3.26c0-.523-.018-1.039-.052-1.533Zm-2.276,3.691a3.1,3.1,0,0,1-2.249.784H4.577a3.1,3.1,0,0,1-2.249-.784,2.814,2.814,0,0,1-.808-2.158c0-.486.016-.966.048-1.427a13.828,13.828,0,0,1,.19-1.477,11.423,11.423,0,0,1,.355-1.453,6.642,6.642,0,0,1,.552-1.25,4.3,4.3,0,0,1,.751-.984,2.989,2.989,0,0,1,.977-.607,3.5,3.5,0,0,1,1.2-.231c.053.028.148.082.3.183.313.2.673.436,1.071.691a7.534,7.534,0,0,0,1.719.768,6.837,6.837,0,0,0,4.285,0,7.544,7.544,0,0,0,1.72-.769c.408-.261.758-.486,1.07-.69.154-.1.248-.154.3-.183a3.5,3.5,0,0,1,1.2.231,2.993,2.993,0,0,1,.976.607,4.285,4.285,0,0,1,.751.984,6.62,6.62,0,0,1,.552,1.25,11.394,11.394,0,0,1,.355,1.453,13.946,13.946,0,0,1,.19,1.477h0c.032.459.049.939.049,1.427a2.814,2.814,0,0,1-.808,2.158Zm0,0" transform="translate(0 -234.781)" fill="#005b85"/>
  </g>
</svg>
