<svg xmlns="http://www.w3.org/2000/svg" width="21.779" height="20.428" viewBox="0 0 21.779 20.428">
  <path id="snapchat" d="M18.857,17.933c.828-.13,2.54-.429,2.868-1.183A.518.518,0,0,0,21.353,16h0c-2.911-.479-4.224-3.461-4.277-3.588-.807-1.447,1.383-1.2,2.244-2.085.84-.865-.507-1.8-1.35-1.4a1.638,1.638,0,0,1-1.209.193c.082-1.369.308-3.64-.247-4.88C14.649.055,9.15-.1,6.594,2.329,4.58,4.239,4.827,6.2,5.016,9.112c-.626.273-1.245-.27-1.7-.27a1.131,1.131,0,0,0-1.114.771c-.113.609.549,1,1.122,1.227.976.383,1.9.5,1.389,1.542a.145.145,0,0,0-.011.025A6.056,6.056,0,0,1,.427,15.995a.521.521,0,0,0-.374.752v0c.324.755,2.053,1.057,2.869,1.184.252.472.059,1.4.84,1.4a16.339,16.339,0,0,1,1.643-.2A3.288,3.288,0,0,1,7.748,20a4.812,4.812,0,0,0,6.284,0v0a3.648,3.648,0,0,1,3.485-.734c1.425.276,1.009-.689,1.339-1.329Z" transform="translate(-0.001 -0.745)" fill="#fff"/>
</svg>
