<svg xmlns="http://www.w3.org/2000/svg" width="25.484" height="26.373" viewBox="0 0 25.484 26.373">
  <g id="Vision-2030" transform="translate(-260.595 -358.388)">
    <g id="Group_15593" data-name="Group 15593" transform="translate(260.8 358.6)">
      <g id="Group_15592" data-name="Group 15592" transform="translate(0 0)">
        <path id="Path_62048" data-name="Path 62048" d="M367.931,378.8l.978.931-.941.978-.969-.931Z" transform="translate(-357.011 -376.9)" fill="#4f8ea8" stroke="#005b85" stroke-width="0.3"/>
        <path id="Path_62049" data-name="Path 62049" d="M400.7,379.778l.978.931.931-.978-.978-.931Z" transform="translate(-387.542 -376.9)" fill="#4f8ea8" stroke="#005b85" stroke-width="0.3"/>
        <path id="Path_62050" data-name="Path 62050" d="M386.1,394.952l.752.734.734-.762-.762-.724Z" transform="translate(-374.315 -390.852)" fill="#4f8ea8" stroke="#005b85" stroke-width="0.3"/>
        <path id="Path_62051" data-name="Path 62051" d="M415.7,399.352l.762.734.724-.762-.762-.724Z" transform="translate(-401.131 -394.838)" fill="#4f8ea8" stroke="#005b85" stroke-width="0.3"/>
        <path id="Path_62052" data-name="Path 62052" d="M372.9,407.252l.752.734.734-.762-.762-.724Z" transform="translate(-362.356 -401.995)" fill="#4f8ea8" stroke="#005b85" stroke-width="0.3"/>
        <path id="Path_62053" data-name="Path 62053" d="M400,408.162l.752.724.734-.752-.762-.734Z" transform="translate(-386.907 -402.81)" fill="#4f8ea8" stroke="#005b85" stroke-width="0.3"/>
        <path id="Path_62054" data-name="Path 62054" d="M389.4,419.636l.527.508.517-.536-.536-.508Z" transform="translate(-377.304 -413.41)" fill="#4f8ea8" stroke="#005b85" stroke-width="0.3"/>
        <path id="Path_62055" data-name="Path 62055" d="M410.8,423.927l.536.517.508-.536-.527-.508Z" transform="translate(-396.692 -417.305)" fill="#4f8ea8" stroke="#005b85" stroke-width="0.3"/>
        <rect id="Rectangle_3574" data-name="Rectangle 3574" width="1.684" height="1.684" transform="translate(18.51 2.565) rotate(-10.382)" fill="#4f8ea8" stroke="#005b85" stroke-width="0.3"/>
        <rect id="Rectangle_3575" data-name="Rectangle 3575" width="1.354" height="1.354" transform="translate(16.346 3.255) rotate(-10.376)" fill="#4f8ea8" stroke="#005b85" stroke-width="0.3"/>
        <rect id="Rectangle_3576" data-name="Rectangle 3576" width="1.354" height="1.354" transform="translate(18.916 5.111) rotate(-10.393)" fill="#4f8ea8" stroke="#005b85" stroke-width="0.3"/>
        <path id="Path_62056" data-name="Path 62056" d="M442.5,413.188l.188,1.035,1.035-.188L443.535,413Z" transform="translate(-425.41 -407.883)" fill="#4f8ea8" stroke="#005b85" stroke-width="0.3"/>
        <rect id="Rectangle_3577" data-name="Rectangle 3577" width="1.053" height="1.053" transform="translate(19.098 7.27) rotate(-10.376)" fill="#4f8ea8" stroke="#005b85" stroke-width="0.3"/>
        <rect id="Rectangle_3578" data-name="Rectangle 3578" width="1.053" height="1.053" transform="translate(15.534 5.727) rotate(-10.376)" fill="#4f8ea8" stroke="#005b85" stroke-width="0.3"/>
        <rect id="Rectangle_3579" data-name="Rectangle 3579" width="1.053" height="1.053" transform="translate(17.415 7.081) rotate(-10.376)" fill="#4f8ea8" stroke="#005b85" stroke-width="0.3"/>
        <rect id="Rectangle_3580" data-name="Rectangle 3580" width="0.743" height="0.743" transform="translate(16.098 7.202) rotate(-10.393)" fill="#4f8ea8" stroke="#005b85" stroke-width="0.3"/>
        <rect id="Rectangle_3581" data-name="Rectangle 3581" width="0.743" height="0.743" transform="matrix(0.984, -0.18, 0.18, 0.984, 17.492, 8.707)" fill="#4f8ea8" stroke="#005b85" stroke-width="0.3"/>
        <path id="Path_62057" data-name="Path 62057" d="M503.124,443.5l-.724,1.524,1.524.724.724-1.524Z" transform="translate(-479.676 -435.515)" fill="#4f8ea8" stroke="#005b85" stroke-width="0.3"/>
        <path id="Path_62058" data-name="Path 62058" d="M481.483,436.1l-.583,1.213,1.223.583.583-1.223Z" transform="translate(-460.198 -428.811)" fill="#4f8ea8" stroke="#005b85" stroke-width="0.3"/>
        <path id="Path_62059" data-name="Path 62059" d="M492.083,468l-.583,1.223,1.223.574.583-1.213Z" transform="translate(-469.801 -457.71)" fill="#4f8ea8" stroke="#005b85" stroke-width="0.3"/>
        <path id="Path_62060" data-name="Path 62060" d="M476.351,458.3l-.451.95.95.451.451-.95Z" transform="translate(-455.669 -448.923)" fill="#4f8ea8" stroke="#005b85" stroke-width="0.3"/>
        <path id="Path_62061" data-name="Path 62061" d="M481.452,487.7l-.451.95.95.451.451-.95Z" transform="translate(-460.289 -475.557)" fill="#4f8ea8" stroke="#005b85" stroke-width="0.3"/>
        <path id="Path_62062" data-name="Path 62062" d="M460.351,452.3l-.451.95.95.451.451-.95Z" transform="translate(-441.173 -443.487)" fill="#4f8ea8" stroke="#005b85" stroke-width="0.3"/>
        <path id="Path_62063" data-name="Path 62063" d="M468.151,475.6l-.451.95.95.451.451-.95Z" transform="translate(-448.24 -464.595)" fill="#4f8ea8" stroke="#005b85" stroke-width="0.3"/>
        <path id="Path_62064" data-name="Path 62064" d="M457.22,468.5l-.32.668.668.32.32-.668Z" transform="translate(-438.456 -458.163)" fill="#4f8ea8" stroke="#005b85" stroke-width="0.3"/>
        <rect id="Rectangle_3582" data-name="Rectangle 3582" width="0.743" height="0.743" transform="matrix(0.43, -0.903, 0.903, 0.43, 18.701, 13.048)" fill="#4f8ea8" stroke="#005b85" stroke-width="0.3"/>
        <path id="Path_62065" data-name="Path 62065" d="M504.577,520.9l-1.477.809.809,1.477,1.477-.809Z" transform="translate(-480.31 -505.635)" fill="#4f8ea8" stroke="#005b85" stroke-width="0.3"/>
        <path id="Path_62066" data-name="Path 62066" d="M493.085,501.4l-1.185.649.649,1.185,1.185-.649Z" transform="translate(-470.164 -487.969)" fill="#4f8ea8" stroke="#005b85" stroke-width="0.3"/>
        <path id="Path_62067" data-name="Path 62067" d="M482.985,533.5l-1.185.649.649,1.185,1.185-.649Z" transform="translate(-461.014 -517.05)" fill="#4f8ea8" stroke="#005b85" stroke-width="0.3"/>
        <path id="Path_62068" data-name="Path 62068" d="M477.422,515.7l-.922.508.508.922.922-.508Z" transform="translate(-456.212 -500.924)" fill="#4f8ea8" stroke="#005b85" stroke-width="0.3"/>
        <path id="Path_62069" data-name="Path 62069" d="M464.322,542.6l-.922.508.508.922.922-.508Z" transform="translate(-444.344 -525.294)" fill="#4f8ea8" stroke="#005b85" stroke-width="0.3"/>
        <path id="Path_62070" data-name="Path 62070" d="M468.022,501.5l-.922.508.5.922.931-.508Z" transform="translate(-447.696 -488.059)" fill="#4f8ea8" stroke="#005b85" stroke-width="0.3"/>
        <path id="Path_62071" data-name="Path 62071" d="M460.622,525l-.922.508.508.912.922-.5Z" transform="translate(-440.992 -509.349)" fill="#4f8ea8" stroke="#005b85" stroke-width="0.3"/>
        <path id="Path_62072" data-name="Path 62072" d="M457.549,512.1l-.649.357.357.649.649-.357Z" transform="translate(-438.456 -497.662)" fill="#4f8ea8" stroke="#005b85" stroke-width="0.3"/>
        <path id="Path_62073" data-name="Path 62073" d="M447.049,531.2l-.649.357.357.649.649-.357Z" transform="translate(-428.943 -514.966)" fill="#4f8ea8" stroke="#005b85" stroke-width="0.3"/>
        <rect id="Rectangle_3583" data-name="Rectangle 3583" width="1.684" height="1.684" transform="translate(18.786 23.111) rotate(-82.952)" fill="#4f8ea8" stroke="#005b85" stroke-width="0.3"/>
        <rect id="Rectangle_3584" data-name="Rectangle 3584" width="1.354" height="1.354" transform="translate(19.145 20.551) rotate(-82.935)" fill="#4f8ea8" stroke="#005b85" stroke-width="0.3"/>
        <rect id="Rectangle_3585" data-name="Rectangle 3585" width="1.354" height="1.354" transform="translate(16.601 22.444) rotate(-82.935)" fill="#4f8ea8" stroke="#005b85" stroke-width="0.3"/>
        <rect id="Rectangle_3586" data-name="Rectangle 3586" width="1.053" height="1.053" transform="translate(17.295 20.385) rotate(-82.952)" fill="#4f8ea8" stroke="#005b85" stroke-width="0.3"/>
        <rect id="Rectangle_3587" data-name="Rectangle 3587" width="1.053" height="1.053" transform="translate(14.818 21.718) rotate(-82.952)" fill="#4f8ea8" stroke="#005b85" stroke-width="0.3"/>
        <rect id="Rectangle_3588" data-name="Rectangle 3588" width="1.053" height="1.053" transform="translate(17.364 18.775) rotate(-82.935)" fill="#4f8ea8" stroke="#005b85" stroke-width="0.3"/>
        <rect id="Rectangle_3589" data-name="Rectangle 3589" width="1.053" height="1.053" transform="translate(15.504 20.164) rotate(-82.935)" fill="#4f8ea8" stroke="#005b85" stroke-width="0.3"/>
        <rect id="Rectangle_3590" data-name="Rectangle 3590" width="0.743" height="0.743" transform="translate(16.131 18.607) rotate(-82.952)" fill="#4f8ea8" stroke="#005b85" stroke-width="0.3"/>
        <rect id="Rectangle_3591" data-name="Rectangle 3591" width="0.743" height="0.743" transform="matrix(0.123, -0.993, 0.993, 0.123, 14.28, 19.48)" fill="#4f8ea8" stroke="#005b85" stroke-width="0.3"/>
        <path id="Path_62074" data-name="Path 62074" d="M386.78,610.348l-1.242-1.148-1.138,1.242,1.232,1.138Z" transform="translate(-372.775 -585.63)" fill="#4f8ea8" stroke="#005b85" stroke-width="0.3"/>
        <path id="Path_62075" data-name="Path 62075" d="M384.289,359.747l-1.242-1.147-1.148,1.232,1.242,1.147Z" transform="translate(-370.51 -358.6)" fill="#4f8ea8" stroke="#005b85" stroke-width="0.3"/>
        <path id="Path_62076" data-name="Path 62076" d="M405.309,592.922l-.988-.922-.922.988.988.922Z" transform="translate(-389.988 -570.047)" fill="#4f8ea8" stroke="#005b85" stroke-width="0.3"/>
        <path id="Path_62077" data-name="Path 62077" d="M371.609,593.512l-.988-.912-.922.988.988.912Z" transform="translate(-359.457 -570.591)" fill="#4f8ea8" stroke="#005b85" stroke-width="0.3"/>
        <path id="Path_62078" data-name="Path 62078" d="M390.086,582.115l-.771-.715-.715.771.771.715Z" transform="translate(-376.58 -560.444)" fill="#4f8ea8" stroke="#005b85" stroke-width="0.3"/>
        <path id="Path_62079" data-name="Path 62079" d="M360.386,578.215l-.771-.715-.715.771.771.715Z" transform="translate(-349.673 -556.911)" fill="#4f8ea8" stroke="#005b85" stroke-width="0.3"/>
        <path id="Path_62080" data-name="Path 62080" d="M400.586,568.715l-.771-.715-.715.771.771.715Z" transform="translate(-386.092 -548.305)" fill="#4f8ea8" stroke="#005b85" stroke-width="0.3"/>
        <path id="Path_62081" data-name="Path 62081" d="M375.986,569.115l-.771-.715-.715.771.771.715Z" transform="translate(-363.806 -548.667)" fill="#4f8ea8" stroke="#005b85" stroke-width="0.3"/>
        <path id="Path_62082" data-name="Path 62082" d="M390.644,561.7l-.546-.5-.5.546.546.5Z" transform="translate(-377.486 -542.144)" fill="#4f8ea8" stroke="#005b85" stroke-width="0.3"/>
        <path id="Path_62083" data-name="Path 62083" d="M369.144,557.8l-.546-.5-.5.536.546.508Z" transform="translate(-358.008 -538.611)" fill="#4f8ea8" stroke="#005b85" stroke-width="0.3"/>
        <rect id="Rectangle_3592" data-name="Rectangle 3592" width="1.684" height="1.684" transform="translate(4.819 22.001) rotate(-11.332)" fill="#4f8ea8" stroke="#005b85" stroke-width="0.3"/>
        <rect id="Rectangle_3593" data-name="Rectangle 3593" width="1.354" height="1.354" transform="matrix(0.98, -0.196, 0.196, 0.98, 7.356, 21.535)" fill="#4f8ea8" stroke="#005b85" stroke-width="0.3"/>
        <rect id="Rectangle_3594" data-name="Rectangle 3594" width="1.354" height="1.354" transform="matrix(0.98, -0.197, 0.197, 0.98, 4.763, 19.731)" fill="#4f8ea8" stroke="#005b85" stroke-width="0.3"/>
        <path id="Path_62084" data-name="Path 62084" d="M335.842,567.235l-.207-1.035-1.035.207.207,1.035Z" transform="translate(-327.659 -546.674)" fill="#4f8ea8" stroke="#005b85" stroke-width="0.3"/>
        <rect id="Rectangle_3595" data-name="Rectangle 3595" width="1.053" height="1.053" transform="matrix(0.98, -0.196, 0.196, 0.98, 8.484, 19.292)" fill="#4f8ea8" stroke="#005b85" stroke-width="0.3"/>
        <rect id="Rectangle_3596" data-name="Rectangle 3596" width="1.053" height="1.053" transform="matrix(0.98, -0.196, 0.196, 0.98, 6.584, 17.965)" fill="#4f8ea8" stroke="#005b85" stroke-width="0.3"/>
        <rect id="Rectangle_3597" data-name="Rectangle 3597" width="0.743" height="0.743" transform="translate(8.268 18.061) rotate(-11.321)" fill="#4f8ea8" stroke="#005b85" stroke-width="0.3"/>
        <rect id="Rectangle_3598" data-name="Rectangle 3598" width="0.743" height="0.743" transform="matrix(0.98, -0.197, 0.197, 0.98, 6.847, 16.585)" fill="#4f8ea8" stroke="#005b85" stroke-width="0.3"/>
        <path id="Path_62085" data-name="Path 62085" d="M264.933,528.329l.705-1.533-1.543-.7-.7,1.524Z" transform="translate(-263.155 -510.346)" fill="#4f8ea8" stroke="#005b85" stroke-width="0.3"/>
        <path id="Path_62086" data-name="Path 62086" d="M290.932,539.6l.564-1.232-1.232-.564-.564,1.232Z" transform="translate(-286.982 -520.945)" fill="#4f8ea8" stroke="#005b85" stroke-width="0.3"/>
        <path id="Path_62087" data-name="Path 62087" d="M279.832,507.887l.555-1.232-1.232-.555-.555,1.232Z" transform="translate(-276.926 -492.227)" fill="#4f8ea8" stroke="#005b85" stroke-width="0.3"/>
        <rect id="Rectangle_3599" data-name="Rectangle 3599" width="1.053" height="1.053" transform="translate(3.56 16.107) rotate(-65.488)" fill="#4f8ea8" stroke="#005b85" stroke-width="0.3"/>
        <path id="Path_62088" data-name="Path 62088" d="M313.259,546.592l.433-.959-.959-.433-.433.95Z" transform="translate(-307.456 -527.649)" fill="#4f8ea8" stroke="#005b85" stroke-width="0.3"/>
        <rect id="Rectangle_3600" data-name="Rectangle 3600" width="1.053" height="1.053" transform="matrix(0.415, -0.91, 0.91, 0.415, 3.037, 13.349)" fill="#4f8ea8" stroke="#005b85" stroke-width="0.3"/>
        <rect id="Rectangle_3601" data-name="Rectangle 3601" width="1.053" height="1.053" transform="matrix(0.415, -0.91, 0.91, 0.415, 5.079, 16.653)" fill="#4f8ea8" stroke="#005b85" stroke-width="0.3"/>
        <rect id="Rectangle_3602" data-name="Rectangle 3602" width="1.053" height="1.053" transform="translate(4.308 14.474) rotate(-65.455)" fill="#4f8ea8" stroke="#005b85" stroke-width="0.3"/>
        <path id="Path_62089" data-name="Path 62089" d="M322.577,514.578l.3-.677-.668-.3-.31.668Z" transform="translate(-316.153 -499.021)" fill="#4f8ea8" stroke="#005b85" stroke-width="0.3"/>
        <path id="Path_62090" data-name="Path 62090" d="M319.477,492.978l.31-.677-.677-.3-.31.668Z" transform="translate(-313.345 -479.453)" fill="#4f8ea8" stroke="#005b85" stroke-width="0.3"/>
        <path id="Path_62091" data-name="Path 62091" d="M261.637,450.4l1.467-.828-.837-1.467-1.467.837Z" transform="translate(-260.8 -439.682)" fill="#4f8ea8" stroke="#005b85" stroke-width="0.3"/>
        <path id="Path_62092" data-name="Path 62092" d="M277.868,474.044l1.176-.668-.668-1.176-1.176.668Z" transform="translate(-275.657 -461.515)" fill="#4f8ea8" stroke="#005b85" stroke-width="0.3"/>
        <path id="Path_62093" data-name="Path 62093" d="M287.377,441.744l1.176-.668-.677-1.176-1.176.668Z" transform="translate(-284.264 -432.253)" fill="#4f8ea8" stroke="#005b85" stroke-width="0.3"/>
        <path id="Path_62094" data-name="Path 62094" d="M297.227,463.43l.912-.517-.527-.912-.912.517Z" transform="translate(-293.323 -452.275)" fill="#4f8ea8" stroke="#005b85" stroke-width="0.3"/>
        <path id="Path_62095" data-name="Path 62095" d="M309.917,436.33l.912-.517-.517-.912-.912.517Z" transform="translate(-304.829 -427.724)" fill="#4f8ea8" stroke="#005b85" stroke-width="0.3"/>
        <path id="Path_62096" data-name="Path 62096" d="M306.917,477.439l.922-.527-.527-.912-.912.527Z" transform="translate(-302.111 -464.958)" fill="#4f8ea8" stroke="#005b85" stroke-width="0.3"/>
        <path id="Path_62097" data-name="Path 62097" d="M313.917,453.839l.922-.527-.527-.912-.912.527Z" transform="translate(-308.453 -443.578)" fill="#4f8ea8" stroke="#005b85" stroke-width="0.3"/>
        <path id="Path_62098" data-name="Path 62098" d="M321.276,470.706l.64-.357-.367-.649-.649.367Z" transform="translate(-315.247 -459.25)" fill="#4f8ea8" stroke="#005b85" stroke-width="0.3"/>
        <path id="Path_62099" data-name="Path 62099" d="M331.467,451.406l.649-.367-.367-.64-.649.367Z" transform="translate(-324.488 -441.766)" fill="#4f8ea8" stroke="#005b85" stroke-width="0.3"/>
        <rect id="Rectangle_3603" data-name="Rectangle 3603" width="1.684" height="1.684" transform="matrix(0.106, -0.994, 0.994, 0.106, 4.334, 4.277)" fill="#4f8ea8" stroke="#005b85" stroke-width="0.3"/>
        <rect id="Rectangle_3604" data-name="Rectangle 3604" width="1.354" height="1.354" transform="translate(4.382 6.543) rotate(-83.892)" fill="#4f8ea8" stroke="#005b85" stroke-width="0.3"/>
        <rect id="Rectangle_3605" data-name="Rectangle 3605" width="1.354" height="1.354" transform="translate(6.888 4.614) rotate(-83.892)" fill="#4f8ea8" stroke="#005b85" stroke-width="0.3"/>
        <rect id="Rectangle_3606" data-name="Rectangle 3606" width="1.053" height="1.053" transform="translate(6.557 6.419) rotate(-83.886)" fill="#4f8ea8" stroke="#005b85" stroke-width="0.3"/>
        <rect id="Rectangle_3607" data-name="Rectangle 3607" width="1.053" height="1.053" transform="matrix(0.106, -0.994, 0.994, 0.106, 9.015, 5.046)" fill="#4f8ea8" stroke="#005b85" stroke-width="0.3"/>
        <rect id="Rectangle_3608" data-name="Rectangle 3608" width="1.053" height="1.053" transform="translate(6.526 8.029) rotate(-83.881)" fill="#4f8ea8" stroke="#005b85" stroke-width="0.3"/>
        <rect id="Rectangle_3609" data-name="Rectangle 3609" width="1.053" height="1.053" transform="translate(8.356 6.613) rotate(-83.881)" fill="#4f8ea8" stroke="#005b85" stroke-width="0.3"/>
        <rect id="Rectangle_3610" data-name="Rectangle 3610" width="0.743" height="0.743" transform="matrix(0.106, -0.994, 0.994, 0.106, 8.106, 7.906)" fill="#4f8ea8" stroke="#005b85" stroke-width="0.3"/>
        <rect id="Rectangle_3611" data-name="Rectangle 3611" width="0.743" height="0.743" transform="translate(9.94 6.997) rotate(-83.921)" fill="#4f8ea8" stroke="#005b85" stroke-width="0.3"/>
        <path id="Path_62100" data-name="Path 62100" d="M347.473,446.29a3.465,3.465,0,0,0-.668-.292,4.145,4.145,0,0,0-2.643.075.651.651,0,0,0-.075.028,4.168,4.168,0,0,0-.423.188c-.122.056-.235.132-.357.2a8.585,8.585,0,0,0-.8.546,17.6,17.6,0,0,1-.085-4.28s.009-.009.009,0c.64.4.461,1.514.32,1.834a.009.009,0,0,0,.009.009,1.981,1.981,0,0,0,.245-2.229c0-.009,0-.009.009-.009a1.638,1.638,0,0,1,.282.292,1.683,1.683,0,0,1,.357.95,3.315,3.315,0,0,1,0,.433c0,.038-.009.066-.009.094,0,.009,0,.009.009.009h0a1.831,1.831,0,0,0,0-1.674,2.092,2.092,0,0,0-.357-.489l-.141-.141c-.009,0,0-.009.009-.009.047.009.094.028.141.038a1.435,1.435,0,0,1,.357.188,1.452,1.452,0,0,1,.5.677,1.476,1.476,0,0,1,.113.621c0,.009.009.009.009,0a1.525,1.525,0,0,0-.132-1.26,1.418,1.418,0,0,0-.5-.48,1.45,1.45,0,0,0-.357-.16c-.066-.019-.122-.028-.169-.038-.009,0-.009-.009,0-.009a1.026,1.026,0,0,1,.169-.009,2.039,2.039,0,0,1,.357.028,1.225,1.225,0,0,1,.5.2,1.09,1.09,0,0,1,.339.357c0,.009.009,0,.009,0a.991.991,0,0,0-.348-.677,1.275,1.275,0,0,0-.5-.263,1.623,1.623,0,0,0-.357-.047,1.17,1.17,0,0,0-.451.085c-.009,0-.009,0-.009-.009a.786.786,0,0,1,.461-.32,1.207,1.207,0,0,1,.357-.047.834.834,0,0,1,.292.066.009.009,0,0,0,.009-.009,1.045,1.045,0,0,0-.3-.245.837.837,0,0,0-.357-.113.9.9,0,0,0-.865.433h-.009c-.038-.075-.085-.16-.122-.245a3.049,3.049,0,0,1-.2-.649c0-.009-.009-.009-.009,0a3.131,3.131,0,0,1-.2.658,1.98,1.98,0,0,1-.122.245h-.009a.923.923,0,0,0-1.524-.066c0,.009,0,.009.009.009a.946.946,0,0,1,1.11.292c0,.009,0,.009-.009.009a1.311,1.311,0,0,0-1.42.348,1.1,1.1,0,0,0-.235.555c0,.009.009.009.009,0a1.169,1.169,0,0,1,.216-.273,1.485,1.485,0,0,1,1.147-.31c.009,0,.009.009,0,.009a1.5,1.5,0,0,0-1.147.922,1.635,1.635,0,0,0-.009,1.025c0,.009.009.009.009,0v-.028a1.532,1.532,0,0,1,1.11-1.5.009.009,0,0,1,.009.009,1.85,1.85,0,0,0-.508,2.295c0,.009.009,0,.009,0a1.909,1.909,0,0,1,.64-1.768c.009,0,.009,0,.009.009a1.981,1.981,0,0,0,.245,2.229c0,.009.019,0,.009-.009-.132-.32-.31-1.439.32-1.834h.009a17.125,17.125,0,0,1-.085,4.28,6.607,6.607,0,0,0-1.58-.941,1.622,1.622,0,0,0-.2-.066,4.258,4.258,0,0,0-1.5-.216,3.932,3.932,0,0,0-1.543.386,1.075,1.075,0,0,0-.151.085c-.019.009,0,.028.009.028a.783.783,0,0,1,.141-.038,4.22,4.22,0,0,1,1.543-.15,4.523,4.523,0,0,1,1.5.4,8.024,8.024,0,0,1,1.778,1.157,19.721,19.721,0,0,1-1.778,1.524l-.056.028a.429.429,0,0,0-.433-.16.417.417,0,0,0-.31.31.388.388,0,0,0,.085.357.6.6,0,0,0,.715.1,9.641,9.641,0,0,0,1.966-1.637c.066-.056.132-.122.207-.179.066.056.132.122.2.179.357.329.7.649,1,.931.122.113.245.216.357.31a4.079,4.079,0,0,0,.5.348.659.659,0,0,0,.8-.019c.009-.009.028-.019.038-.028a.465.465,0,0,0,.085-.357.394.394,0,0,0-.122-.207.5.5,0,0,0-.2-.1.428.428,0,0,0-.433.16,1.646,1.646,0,0,1-.169-.1,4.731,4.731,0,0,1-.5-.4c-.113-.1-.235-.207-.357-.32-.245-.226-.517-.47-.8-.724.254-.216.527-.414.8-.611.113-.075.235-.16.357-.226.16-.094.329-.188.5-.273a4.52,4.52,0,0,1,.8-.3,4.289,4.289,0,0,1,1.844-.113,5.99,5.99,0,0,1,.658.151c.047-.009.056-.028.038-.038" transform="translate(-329.574 -432.276)" fill="#4f8ea8" stroke="#005b85" stroke-width="0.3"/>
      </g>
    </g>
  </g>
</svg>
