<svg xmlns="http://www.w3.org/2000/svg" width="16.894" height="20.428" viewBox="0 0 16.894 20.428">
  <g id="youtube" transform="translate(-345 -5361.071)">
    <g id="Group_15475" data-name="Group 15475" transform="translate(347.289 5361.071)">
      <g id="youtube-logo" transform="translate(0)">
        <g id="Group_15474" data-name="Group 15474">
          <path id="Path_61769" data-name="Path 61769" d="M336.6,53.152v4.491a2.923,2.923,0,0,0,.091.855.633.633,0,0,0,.673.422,1.639,1.639,0,0,0,1.174-.707v.627h1.038V53.152h-1.037V57.5q-.342.491-.65.49c-.137,0-.217-.083-.239-.251a2.964,2.964,0,0,1-.011-.4V53.152Z" transform="translate(-328.75 -51.202)" fill="#fff"/>
          <path id="Path_61770" data-name="Path 61770" d="M232.133,57.121a1.4,1.4,0,0,0,1.208-.581,2.247,2.247,0,0,0,.319-1.345V53.2a2.223,2.223,0,0,0-.319-1.334,1.534,1.534,0,0,0-2.405,0,2.223,2.223,0,0,0-.319,1.334V55.2a2.277,2.277,0,0,0,.319,1.345A1.41,1.41,0,0,0,232.133,57.121Zm-.49-4.127q0-.786.49-.786t.49.786v2.394q0,.8-.49.8t-.49-.8Z" transform="translate(-226.65 -49.404)" fill="#fff"/>
          <path id="Path_61771" data-name="Path 61771" d="M125.034,7.638V4.549L126.414,0h-1.163l-.775,3-.81-3h-1.208q.319.958.741,2.132a19.372,19.372,0,0,1,.7,2.417V7.638h1.14Z" transform="translate(-122.458)" fill="#fff"/>
          <path id="Path_61773" data-name="Path 61773" d="M419.168,365.811q-.513,0-.513.775v.525h1.026v-.525Q419.681,365.812,419.168,365.811Z" transform="translate(-407.791 -352.394)" fill="#fff"/>
          <path id="Path_61774" data-name="Path 61774" d="M315.984,365.811a.73.73,0,0,0-.513.251v3.431a.73.73,0,0,0,.513.251q.444,0,.445-.764v-2.405Q316.428,365.811,315.984,365.811Z" transform="translate(-308.392 -352.394)" fill="#fff"/>
        </g>
      </g>
    </g>
    <path id="Path_61772" data-name="Path 61772" d="M64.122,236.972a2.09,2.09,0,0,0-1.168-.536q-2.1-.228-6.327-.228t-6.315.228a2.071,2.071,0,0,0-1.174.536,2.167,2.167,0,0,0-.661,1.129,19.739,19.739,0,0,0-.3,3.99,19.351,19.351,0,0,0,.3,3.99,2.084,2.084,0,0,0,.655,1.128,2.02,2.02,0,0,0,1.168.525,61.033,61.033,0,0,0,6.327.239,61.031,61.031,0,0,0,6.327-.239,2,2,0,0,0,1.163-.525,2.169,2.169,0,0,0,.661-1.128,19.76,19.76,0,0,0,.3-3.99,19.352,19.352,0,0,0-.3-3.99A2.088,2.088,0,0,0,64.122,236.972ZM53,239.252h-1.22v6.487h-1.14v-6.487h-1.2V238.18H53v1.071Zm3.078,6.487H55.065v-.616a1.669,1.669,0,0,1-1.163.7.614.614,0,0,1-.661-.422,2.817,2.817,0,0,1-.091-.832v-4.457h1.015v4.15a3.156,3.156,0,0,0,.011.4q.034.239.24.239.308,0,.65-.479v-4.309H56.08v5.632Zm3.876-1.687a4.187,4.187,0,0,1-.1,1.14.789.789,0,0,1-.809.627,1.415,1.415,0,0,1-1.06-.627v.547H56.969V238.18h1.015v2.474a1.373,1.373,0,0,1,1.06-.615.792.792,0,0,1,.809.638,4.055,4.055,0,0,1,.1,1.129Zm3.853-.935h-2.04v.992q0,.787.524.786a.436.436,0,0,0,.456-.41,5.675,5.675,0,0,0,.023-.7h1.037v.148a4.993,4.993,0,0,1-.023.661,1.411,1.411,0,0,1-1.47,1.22,1.463,1.463,0,0,1-1.231-.582,2.139,2.139,0,0,1-.331-1.322v-1.972a2.2,2.2,0,0,1,.319-1.323,1.559,1.559,0,0,1,2.428,0,2.264,2.264,0,0,1,.308,1.323v1.174Z" transform="translate(296.82 5133.527)" fill="#fff"/>
  </g>
</svg>
